<svg width="24" height="24" viewBox="0 0 24 24" fill="none" xmlns="http://www.w3.org/2000/svg">
<path fill-rule="evenodd" clip-rule="evenodd" d="M22 7C22 9.76142 19.7614 12 17 12C14.2386 12 12 9.76142 12 7C12 4.23858 14.2386 2 17 2C19.7614 2 22 4.23858 22 7ZM19.75 7C19.75 7.41421 19.4142 7.75 19 7.75H17.75V9C17.75 9.41421 17.4142 9.75 17 9.75C16.5858 9.75 16.25 9.41421 16.25 9V7.75H15C14.5858 7.75 14.25 7.41421 14.25 7C14.25 6.58579 14.5858 6.25 15 6.25H16.25V5C16.25 4.58579 16.5858 4.25 17 4.25C17.4142 4.25 17.75 4.58579 17.75 5V6.25H19C19.4142 6.25 19.75 6.58579 19.75 7Z" fill="#6B6D7A"/>
<path fill-rule="evenodd" clip-rule="evenodd" d="M4 3C4 2.44772 4.44772 2 5 2H9C9.55228 2 10 2.44772 10 3C10 3.55228 9.55228 4 9 4H6V19.2768L9.51931 17.2658C11.0565 16.3874 12.9435 16.3874 14.4807 17.2658L18 19.2768V15C18 14.4477 18.4477 14 19 14C19.5523 14 20 14.4477 20 15V21C20 21.3565 19.8102 21.686 19.5019 21.8649C19.1936 22.0438 18.8134 22.0451 18.5039 21.8682L13.4884 19.0023C12.5661 18.4752 11.4339 18.4752 10.5116 19.0023L5.49614 21.8682C5.18664 22.0451 4.80639 22.0438 4.49807 21.8649C4.18976 21.686 4 21.3565 4 21V3Z" fill="#6B6D7A"/>
</svg>
