<svg width="24" height="24" viewBox="0 0 24 24" fill="none" xmlns="http://www.w3.org/2000/svg">
<path d="M16.7071 8.79289C17.0976 9.18342 17.0976 9.81658 16.7071 10.2071L11.7071 15.2071C11.3654 15.5488 10.8379 15.5915 10.4498 15.3352C10.3943 15.2986 10.3417 15.2559 10.2929 15.2071L7.29289 12.2071C6.90237 11.8166 6.90237 11.1834 7.29289 10.7929C7.68342 10.4024 8.31658 10.4024 8.70711 10.7929L11 13.0858L15.2929 8.79289C15.6834 8.40237 16.3166 8.40237 16.7071 8.79289Z" fill="#44BC85"/>
<path fill-rule="evenodd" clip-rule="evenodd" d="M12 2C6.47715 2 2 6.47715 2 12C2 17.5228 6.47715 22 12 22C17.5228 22 22 17.5228 22 12C22 6.47715 17.5228 2 12 2ZM4 12C4 7.58172 7.58172 4 12 4C16.4183 4 20 7.58172 20 12C20 16.4183 16.4183 20 12 20C7.58172 20 4 16.4183 4 12Z" fill="#44BC85"/>
</svg>
