<svg width="20" height="20" viewBox="0 0 20 20" fill="none" xmlns="http://www.w3.org/2000/svg">
<path fill-rule="evenodd" clip-rule="evenodd" d="M2.5 6.66667C2.5 4.36548 4.36548 2.5 6.66667 2.5H10C12.0404 2.5 13.7382 3.9666 14.0969 5.90314C16.0334 6.26177 17.5 7.95961 17.5 10V13.3333C17.5 15.6345 15.6345 17.5 13.3333 17.5H10C7.95961 17.5 6.26177 16.0334 5.90314 14.0969C3.9666 13.7382 2.5 12.0404 2.5 10V6.66667ZM5.83333 12.3577V10C5.83333 7.69881 7.69881 5.83333 10 5.83333H12.3577C12.0145 4.86234 11.0885 4.16667 10 4.16667H6.66667C5.28595 4.16667 4.16667 5.28595 4.16667 6.66667V10C4.16667 11.0885 4.86234 12.0145 5.83333 12.3577ZM7.5 10C7.5 8.61929 8.61929 7.5 10 7.5H13.3333C14.714 7.5 15.8333 8.61929 15.8333 10V13.3333C15.8333 14.714 14.714 15.8333 13.3333 15.8333H10C8.61929 15.8333 7.5 14.714 7.5 13.3333V10Z" fill="#B6BAC4"/>
</svg>
