<svg width="24" height="24" viewBox="0 0 24 24" fill="none" xmlns="http://www.w3.org/2000/svg">
<path d="M13 11C13 10.4477 12.5523 10 12 10C11.4477 10 11 10.4477 11 11V14H10C9.59557 14 9.23093 14.2436 9.07615 14.6173C8.92137 14.991 9.00692 15.4211 9.29292 15.7071L11.2884 17.7026C11.3037 17.7181 11.3195 17.7331 11.3358 17.7475C11.4172 17.82 11.5076 17.8769 11.6032 17.9182C11.724 17.9705 11.8571 17.9996 11.997 18L12 18L12.0092 18C12.1361 17.9988 12.2573 17.974 12.3687 17.9298C12.4919 17.8811 12.6074 17.8068 12.7071 17.7071L14.7071 15.7071C14.9931 15.4211 15.0787 14.991 14.9239 14.6173C14.7691 14.2436 14.4045 14 14 14H13V11Z" fill="#007AFF"/>
<path fill-rule="evenodd" clip-rule="evenodd" d="M4 7C4 4.23858 6.23858 2 9 2H12.5969C13.7322 2 14.8338 2.3864 15.7204 3.09566L18.1235 5.01815C19.3096 5.96702 20 7.40358 20 8.9225V17C20 19.7614 17.7614 22 15 22H9C6.23858 22 4 19.7614 4 17V7ZM9 4C7.34315 4 6 5.34315 6 7V17C6 18.6569 7.34315 20 9 20H15C16.6569 20 18 18.6569 18 17V8.9225C18 8.60562 17.9499 8.29471 17.8547 8H15C13.8954 8 13 7.10457 13 6V4.0272C12.867 4.00917 12.7323 4 12.5969 4H9Z" fill="#007AFF"/>
</svg>
