<svg width="20" height="20" viewBox="0 0 20 20" fill="none" xmlns="http://www.w3.org/2000/svg">
<path d="M10 15H4.16667C3.72464 15 3.30072 14.8244 2.98816 14.5119C2.67559 14.1993 2.5 13.7754 2.5 13.3333V5.00001M2.5 5.00001C2.5 4.55798 2.67559 4.13406 2.98816 3.8215C3.30072 3.50894 3.72464 3.33334 4.16667 3.33334H15.8333C16.2754 3.33334 16.6993 3.50894 17.0118 3.8215C17.3244 4.13406 17.5 4.55798 17.5 5.00001M2.5 5.00001L10 10L17.5 5.00001M17.5 5.00001V11.25M12.5 15H17.5M17.5 15L15 12.5M17.5 15L15 17.5" stroke="white" stroke-width="1.4" stroke-linecap="round" stroke-linejoin="round"/>
</svg>
