<svg width="20" height="20" viewBox="0 0 20 20" fill="none" xmlns="http://www.w3.org/2000/svg">
<path d="M11.6667 2.5V5.83333C11.6667 6.05435 11.7545 6.26631 11.9108 6.42259C12.0671 6.57887 12.2791 6.66667 12.5001 6.66667H15.8334M11.6667 2.5H5.83341C5.39139 2.5 4.96746 2.67559 4.6549 2.98816C4.34234 3.30072 4.16675 3.72464 4.16675 4.16667V15.8333C4.16675 16.2754 4.34234 16.6993 4.6549 17.0118C4.96746 17.3244 5.39139 17.5 5.83341 17.5H14.1667C14.6088 17.5 15.0327 17.3244 15.3453 17.0118C15.6578 16.6993 15.8334 16.2754 15.8334 15.8333V6.66667M11.6667 2.5L15.8334 6.66667M10.0001 9.16667V14.1667M10.0001 9.16667L7.91675 11.25M10.0001 9.16667L12.0834 11.25" stroke="#A2A0B3" stroke-width="1.4" stroke-linecap="round" stroke-linejoin="round"/>
</svg>
