<svg width="24" height="24" viewBox="0 0 24 24" fill="none" xmlns="http://www.w3.org/2000/svg">
<path d="M6.07089 10C6.55612 6.60771 9.47353 4 13 4C16.866 4 20 7.13401 20 11V11.5147C20 15.6487 16.6487 19 12.5147 19C10.5295 19 8.62559 18.2114 7.22182 16.8076L6.70711 16.2929C6.31658 15.9024 5.68342 15.9024 5.29289 16.2929C4.90237 16.6834 4.90237 17.3166 5.29289 17.7071L5.80761 18.2218C7.58645 20.0007 9.99907 21 12.5147 21C17.7533 21 22 16.7533 22 11.5147V11C22 6.02944 17.9706 2 13 2C8.36745 2 4.55237 5.50005 4.05493 10H3.00003C2.59557 10 2.23093 10.2436 2.07615 10.6173C1.92137 10.991 2.00692 11.4211 2.29292 11.7071L4.29292 13.7071C4.68345 14.0976 5.31661 14.0976 5.70714 13.7071L7.70714 11.7071C7.99313 11.4211 8.07869 10.991 7.92391 10.6173C7.76913 10.2436 7.40449 10 7.00003 10H6.07089Z" fill="#6B6D7A"/>
<path d="M14 7C14 6.44772 13.5523 6 13 6C12.4477 6 12 6.44772 12 7V13C12 13.4304 12.2754 13.8126 12.6838 13.9487L15.6838 14.9487C16.2077 15.1233 16.774 14.8402 16.9487 14.3162C17.1233 13.7923 16.8402 13.226 16.3162 13.0513L14 12.2792V7Z" fill="#6B6D7A"/>
</svg>
