<svg width="168" height="32" viewBox="0 0 168 32" fill="none" xmlns="http://www.w3.org/2000/svg">
<g clip-path="url(#clip0_538_3132)">
<path fill-rule="evenodd" clip-rule="evenodd" d="M1.83957 3.42578C2.56949 3.42578 3.1612 4.01749 3.1612 4.74741V21.561L13.0168 27.3725V25.5871L4.83794 20.632C4.21365 20.2538 4.01418 19.4411 4.3924 18.8169C4.77061 18.1926 5.5833 17.9931 6.20758 18.3713L15.66 24.098V31.9997L0.517944 23.071V4.74741C0.517944 4.01749 1.10966 3.42578 1.83957 3.42578Z" fill="white"/>
<path fill-rule="evenodd" clip-rule="evenodd" d="M31.0861 3.42578C31.816 3.42578 32.4077 4.01749 32.4077 4.74741V23.071L17.2656 31.9997V24.098L26.7181 18.3713C27.3423 17.9931 28.155 18.1926 28.5332 18.8169C28.9115 19.4411 28.712 20.2538 28.0877 20.632L19.9089 25.5871V27.3725L29.7644 21.561V4.74741C29.7644 4.01749 30.3562 3.42578 31.0861 3.42578Z" fill="white"/>
<path fill-rule="evenodd" clip-rule="evenodd" d="M16.5417 -0.000732422L28.1782 6.96102V15.9495C28.1782 16.6794 27.5864 17.2711 26.8565 17.2711C26.1266 17.2711 25.5349 16.6794 25.5349 15.9495V8.45983L16.5335 3.07456L7.41462 8.46448V15.9495C7.41462 16.6794 6.8229 17.2711 6.09299 17.2711C5.36308 17.2711 4.77136 16.6794 4.77136 15.9495V6.95637L16.5417 -0.000732422Z" fill="white"/>
<path fill-rule="evenodd" clip-rule="evenodd" d="M10.2813 4.62012C11.0113 4.62012 11.603 5.21183 11.603 5.94174V16.6147L16.4985 19.5385L21.1315 16.6335V5.94174C21.1315 5.21183 21.7232 4.62012 22.4532 4.62012C23.1831 4.62012 23.7748 5.21183 23.7748 5.94174V18.096L16.532 22.6374L8.95972 18.1148V5.94174C8.95972 5.21183 9.55143 4.62012 10.2813 4.62012Z" fill="white"/>
<path d="M55.1288 10.586V23.84H51.9003V15.8913L48.936 23.84H46.3305L43.3474 15.8725V23.84H40.1189V10.586H43.9327L47.6522 19.7618L51.3338 10.586H55.1288Z" fill="white"/>
<path d="M67.3816 18.4024C67.3816 18.7045 67.3627 19.0192 67.325 19.3465H60.0182C60.0686 20.001 60.2763 20.5045 60.6413 20.8569C61.0189 21.1967 61.4783 21.3667 62.0196 21.3667C62.8251 21.3667 63.3852 21.0268 63.6999 20.3471H67.1362C66.9599 21.0394 66.639 21.6625 66.1733 22.2163C65.7201 22.7701 65.1474 23.2044 64.4551 23.519C63.7629 23.8337 62.9888 23.991 62.1328 23.991C61.1007 23.991 60.1819 23.7708 59.3763 23.3302C58.5707 22.8897 57.9414 22.2603 57.4883 21.4422C57.0351 20.624 56.8086 19.6674 56.8086 18.5724C56.8086 17.4773 57.0288 16.5207 57.4694 15.7025C57.9225 14.8844 58.5519 14.255 59.3574 13.8145C60.163 13.374 61.0881 13.1537 62.1328 13.1537C63.1524 13.1537 64.0586 13.3677 64.8516 13.7956C65.6446 14.2236 66.2614 14.834 66.7019 15.627C67.155 16.42 67.3816 17.3451 67.3816 18.4024ZM64.0775 17.5528C64.0775 16.999 63.8887 16.5585 63.5111 16.2312C63.1335 15.9039 62.6615 15.7403 62.0951 15.7403C61.5538 15.7403 61.0944 15.8976 60.7168 16.2123C60.3518 16.527 60.1252 16.9738 60.0371 17.5528H64.0775Z" fill="white"/>
<path d="M75.5041 13.1915C76.7377 13.1915 77.7194 13.5942 78.4495 14.3998C79.1921 15.1928 79.5634 16.2878 79.5634 17.685V23.84H76.3538V18.1192C76.3538 17.4144 76.1713 16.8668 75.8062 16.4766C75.4412 16.0864 74.9503 15.8913 74.3336 15.8913C73.7168 15.8913 73.2259 16.0864 72.8609 16.4766C72.4959 16.8668 72.3134 17.4144 72.3134 18.1192V23.84H69.0848V13.3047H72.3134V14.7019C72.6406 14.2362 73.0812 13.8711 73.635 13.6068C74.1888 13.3299 74.8119 13.1915 75.5041 13.1915Z" fill="white"/>
<path d="M83.4307 12.2097C82.8643 12.2097 82.3985 12.046 82.0335 11.7188C81.6811 11.3789 81.5049 10.9636 81.5049 10.4727C81.5049 9.9692 81.6811 9.55383 82.0335 9.22657C82.3985 8.88672 82.8643 8.7168 83.4307 8.7168C83.9845 8.7168 84.4376 8.88672 84.7901 9.22657C85.1551 9.55383 85.3376 9.9692 85.3376 10.4727C85.3376 10.9636 85.1551 11.3789 84.7901 11.7188C84.4376 12.046 83.9845 12.2097 83.4307 12.2097ZM85.0355 13.3047V23.84H81.8069V13.3047H85.0355Z" fill="white"/>
<path d="M93.7945 13.1915C95.028 13.1915 96.0098 13.5942 96.7399 14.3998C97.4825 15.1928 97.8538 16.2878 97.8538 17.685V23.84H94.6441V18.1192C94.6441 17.4144 94.4616 16.8668 94.0966 16.4766C93.7316 16.0864 93.2407 15.8913 92.6239 15.8913C92.0072 15.8913 91.5163 16.0864 91.1513 16.4766C90.7862 16.8668 90.6037 17.4144 90.6037 18.1192V23.84H87.3752V13.3047H90.6037V14.7019C90.931 14.2362 91.3715 13.8711 91.9254 13.6068C92.4792 13.3299 93.1022 13.1915 93.7945 13.1915Z" fill="white"/>
<path d="M104.1 13.1537C104.843 13.1537 105.491 13.3047 106.045 13.6068C106.611 13.9089 107.045 14.3054 107.347 14.7963V13.3047H110.576V23.8211C110.576 24.7903 110.381 25.6651 109.991 26.4455C109.613 27.2385 109.028 27.8678 108.235 28.3335C107.454 28.7992 106.479 29.0321 105.308 29.0321C103.748 29.0321 102.483 28.6608 101.513 27.9182C100.544 27.1881 99.9903 26.1937 99.8519 24.9351H103.043C103.143 25.3378 103.383 25.6525 103.76 25.8791C104.138 26.1182 104.603 26.2378 105.157 26.2378C105.824 26.2378 106.353 26.0427 106.743 25.6525C107.146 25.2749 107.347 24.6644 107.347 23.8211V22.3296C107.033 22.8205 106.598 23.2232 106.045 23.5379C105.491 23.84 104.843 23.991 104.1 23.991C103.231 23.991 102.445 23.7708 101.74 23.3302C101.035 22.8771 100.475 22.2415 100.06 21.4233C99.6568 20.5926 99.4554 19.636 99.4554 18.5535C99.4554 17.471 99.6568 16.5207 100.06 15.7025C100.475 14.8844 101.035 14.255 101.74 13.8145C102.445 13.374 103.231 13.1537 104.1 13.1537ZM107.347 18.5724C107.347 17.7668 107.121 17.1312 106.668 16.6654C106.227 16.1997 105.686 15.9669 105.044 15.9669C104.402 15.9669 103.855 16.1997 103.401 16.6654C102.961 17.1186 102.741 17.7479 102.741 18.5535C102.741 19.359 102.961 20.001 103.401 20.4793C103.855 20.945 104.402 21.1779 105.044 21.1779C105.686 21.1779 106.227 20.945 106.668 20.4793C107.121 20.0136 107.347 19.3779 107.347 18.5724Z" fill="white"/>
<path d="M127.316 13.3047V23.84H124.087V22.4051C123.76 22.8708 123.313 23.2484 122.747 23.5379C122.193 23.8148 121.576 23.9533 120.896 23.9533C120.091 23.9533 119.38 23.7771 118.763 23.4246C118.146 23.0596 117.668 22.5372 117.328 21.8576C116.988 21.1779 116.818 20.3786 116.818 19.4597V13.3047H120.028V19.0255C120.028 19.7304 120.21 20.2779 120.575 20.6681C120.94 21.0583 121.431 21.2534 122.048 21.2534C122.677 21.2534 123.175 21.0583 123.54 20.6681C123.905 20.2779 124.087 19.7304 124.087 19.0255V13.3047H127.316Z" fill="white"/>
<path d="M140.397 13.3047L133.789 28.8433H130.315L132.731 23.4813L128.445 13.3047H132.052L134.487 19.894L136.904 13.3047H140.397Z" fill="white"/>
<path d="M143.188 12.2097C142.621 12.2097 142.156 12.046 141.791 11.7188C141.438 11.3789 141.262 10.9636 141.262 10.4727C141.262 9.9692 141.438 9.55383 141.791 9.22657C142.156 8.88672 142.621 8.7168 143.188 8.7168C143.742 8.7168 144.195 8.88672 144.547 9.22657C144.912 9.55383 145.095 9.9692 145.095 10.4727C145.095 10.9636 144.912 11.3789 144.547 11.7188C144.195 12.046 143.742 12.2097 143.188 12.2097ZM144.793 13.3047V23.84H141.564V13.3047H144.793Z" fill="white"/>
<path d="M160.575 13.1915C161.884 13.1915 162.923 13.5879 163.69 14.3809C164.471 15.1739 164.861 16.2752 164.861 17.685V23.84H161.651V18.1192C161.651 17.4395 161.469 16.9172 161.104 16.5522C160.751 16.1746 160.261 15.9857 159.631 15.9857C159.002 15.9857 158.505 16.1746 158.14 16.5522C157.787 16.9172 157.611 17.4395 157.611 18.1192V23.84H154.401V18.1192C154.401 17.4395 154.219 16.9172 153.854 16.5522C153.501 16.1746 153.01 15.9857 152.381 15.9857C151.752 15.9857 151.255 16.1746 150.89 16.5522C150.537 16.9172 150.361 17.4395 150.361 18.1192V23.84H147.132V13.3047H150.361V14.6264C150.688 14.1858 151.116 13.8397 151.645 13.5879C152.173 13.3236 152.771 13.1915 153.438 13.1915C154.231 13.1915 154.936 13.3614 155.553 13.7012C156.182 14.0411 156.673 14.5257 157.026 15.155C157.391 14.576 157.888 14.104 158.517 13.739C159.147 13.374 159.833 13.1915 160.575 13.1915Z" fill="white"/>
</g>
<defs>
<clipPath id="clip0_538_3132">
<rect width="166.964" height="32" fill="white" transform="translate(0.517944)"/>
</clipPath>
</defs>
</svg>
