<svg width="308" height="56" viewBox="0 0 308 56" fill="none" xmlns="http://www.w3.org/2000/svg">
<g clip-path="url(#clip0_556_6251)">
<path d="M72.8735 14.7087C71.8089 15.7034 70.4063 16.2567 68.9494 16.2567C67.4925 16.2567 66.0899 15.7034 65.0253 14.7087C64.5171 14.2343 64.1119 13.6604 63.8348 13.0227C63.5578 12.3851 63.4148 11.6972 63.4148 11.0019C63.4148 10.3067 63.5578 9.61884 63.8348 8.98117C64.1119 8.34351 64.5171 7.76964 65.0253 7.29524C66.0899 6.3005 67.4925 5.74719 68.9494 5.74719C70.4063 5.74719 71.8089 6.3005 72.8735 7.29524C73.3823 7.76931 73.788 8.34306 74.0654 8.98077C74.3429 9.61848 74.486 10.3065 74.486 11.0019C74.486 11.6974 74.3429 12.3854 74.0654 13.0231C73.788 13.6608 73.3823 14.2346 72.8735 14.7087ZM66.9772 13.0335C67.5026 13.5538 68.2122 13.8456 68.9516 13.8456C69.691 13.8456 70.4005 13.5538 70.926 13.0335C71.188 12.7656 71.3933 12.4476 71.5298 12.0986C71.6663 11.7495 71.7312 11.3766 71.7205 11.0019C71.7316 10.6279 71.6669 10.2555 71.5304 9.90709C71.3938 9.55869 71.1882 9.24152 70.926 8.97464C70.3997 8.45593 69.6905 8.16516 68.9516 8.16516C68.2127 8.16516 67.5035 8.45593 66.9772 8.97464C66.7142 9.24112 66.508 9.55817 66.3711 9.90663C66.2342 10.2551 66.1693 10.6277 66.1805 11.0019C66.1701 11.3767 66.2353 11.7498 66.3722 12.0988C66.509 12.4479 66.7148 12.7658 66.9772 13.0335Z" fill="#00349A"/>
<path d="M78.1365 8.4507V6.0304H85.8666V8.4507L81.4712 13.5598H86.0191V15.9736H77.9218V13.5598L82.3236 8.4507H78.1365Z" fill="#00349A"/>
<path d="M87.7453 15.9736V6.0304H92.2159C93.238 6.0304 94.0611 6.29168 94.6852 6.81426C94.9717 7.02979 95.2048 7.30818 95.3668 7.62801C95.5287 7.94783 95.6151 8.30055 95.6193 8.65902C95.6222 8.92809 95.5778 9.19557 95.4883 9.44932C95.4182 9.6641 95.3106 9.86477 95.1705 10.0421C95.056 10.1788 94.9318 10.3073 94.7991 10.4265C94.7024 10.5177 94.5941 10.5957 94.477 10.6584L94.3438 10.7293C94.3911 10.7465 94.4534 10.7744 94.5349 10.8087C94.6831 10.8803 94.8266 10.9614 94.9644 11.0514C95.1612 11.1726 95.3428 11.3168 95.5055 11.4809C95.6859 11.6757 95.8312 11.9002 95.935 12.1445C96.0636 12.4352 96.1287 12.7501 96.1261 13.068C96.1261 13.8454 95.7875 14.5247 95.1104 15.106C94.4333 15.6873 93.5651 15.9786 92.5058 15.9801L87.7453 15.9736ZM90.4423 8.16078V9.85951H91.9325C92.1781 9.87199 92.4189 9.78886 92.6046 9.62757C92.7644 9.46219 92.8537 9.2412 92.8537 9.01122C92.8537 8.78124 92.7644 8.56025 92.6046 8.39487C92.4197 8.23201 92.1785 8.14798 91.9325 8.16078H90.4423ZM92.2846 13.8411C92.4256 13.8465 92.5662 13.824 92.6985 13.775C92.8307 13.726 92.9521 13.6514 93.0555 13.5555C93.1499 13.4627 93.2249 13.3521 93.276 13.23C93.3272 13.108 93.3536 12.977 93.3536 12.8446C93.3536 12.7123 93.3272 12.5813 93.276 12.4592C93.2249 12.3372 93.1499 12.2265 93.0555 12.1338C92.8463 11.9408 92.569 11.8389 92.2846 11.8503H90.4423V13.8411H92.2846Z" fill="#00349A"/>
<path d="M105.589 13.6994V15.9736H97.7817V6.0304H105.45V8.30467H100.479V9.86381H104.311V12.0114H100.479V13.7101L105.589 13.6994Z" fill="#00349A"/>
<path d="M109.939 13.4159V15.9736H107.251V6.0304H109.939V9.86381L113.203 6.0304H116.332L112.789 10.1494L116.624 15.9736H113.497L111.013 12.2089L109.939 13.4159Z" fill="#00349A"/>
<path d="M117.571 6.0304H120.268V15.9736H117.571V6.0304Z" fill="#00349A"/>
<path d="M126.355 12.4559C126.155 12.3069 125.931 12.1943 125.692 12.123C125.421 12.0349 125.121 11.9404 124.792 11.8417C124.455 11.74 124.125 11.6136 123.806 11.4637C123.488 11.3165 123.189 11.1327 122.913 10.9161C122.628 10.6851 122.401 10.391 122.25 10.057C122.073 9.66382 121.985 9.23613 121.994 8.80499C121.994 7.99321 122.346 7.27735 123.051 6.65742C123.755 6.03749 124.657 5.73182 125.758 5.74041C126.192 5.7374 126.625 5.78716 127.047 5.88859C127.389 5.96587 127.721 6.08563 128.034 6.24509C128.265 6.36985 128.489 6.50751 128.704 6.65742C128.858 6.75546 128.994 6.87892 129.106 7.02251L129.239 7.15995L127.672 8.80499C127.604 8.7296 127.532 8.65791 127.457 8.59024C127.287 8.45279 127.101 8.33601 126.903 8.24233C126.638 8.10198 126.343 8.02827 126.044 8.02757C125.767 8.01737 125.496 8.10821 125.282 8.28313C125.188 8.35139 125.112 8.44007 125.058 8.54241C125.004 8.64476 124.974 8.75807 124.97 8.87371C124.973 8.9667 124.997 9.05778 125.042 9.13926C125.087 9.22074 125.151 9.29024 125.228 9.34189C125.428 9.48881 125.652 9.6013 125.889 9.67476C126.16 9.76496 126.458 9.85945 126.783 9.95824C127.119 10.0614 127.449 10.1877 127.768 10.3362C128.089 10.4828 128.392 10.6666 128.67 10.8838C128.954 11.115 129.18 11.4091 129.331 11.7429C129.509 12.1351 129.596 12.5622 129.587 12.9928C129.592 13.4365 129.496 13.8756 129.308 14.2775C129.12 14.6794 128.844 15.0337 128.5 15.3143C127.777 15.9428 126.815 16.2571 125.614 16.2571C125.136 16.2589 124.66 16.1997 124.197 16.081C123.806 15.9875 123.428 15.8431 123.074 15.6514C122.805 15.5011 122.544 15.3348 122.295 15.1532C122.114 15.0268 121.947 14.883 121.794 14.7237L121.642 14.5497L123.203 12.9197C123.232 12.9602 123.265 12.9976 123.302 13.0314C123.351 13.0787 123.446 13.1624 123.587 13.287C123.725 13.4115 123.875 13.5222 124.034 13.6177C124.22 13.7242 124.417 13.8092 124.622 13.8711C124.852 13.9431 125.091 13.98 125.331 13.9806C125.668 13.9966 125.999 13.8864 126.259 13.6714C126.37 13.5811 126.46 13.4669 126.522 13.3372C126.584 13.2074 126.615 13.0655 126.615 12.9219C126.612 12.8292 126.586 12.7386 126.541 12.6576C126.496 12.5766 126.432 12.5074 126.355 12.4559Z" fill="#00349A"/>
<path d="M138.208 6.0304V8.45071H135.436V15.9672H132.739V8.45071H129.971V6.0304H138.208Z" fill="#00349A"/>
<path d="M147.903 14.7087C146.838 15.7034 145.436 16.2567 143.979 16.2567C142.522 16.2567 141.119 15.7034 140.055 14.7087C139.546 14.2346 139.14 13.6608 138.863 13.0231C138.585 12.3854 138.442 11.6974 138.442 11.0019C138.442 10.3065 138.585 9.61848 138.863 8.98077C139.14 8.34306 139.546 7.76931 140.055 7.29524C141.119 6.3005 142.522 5.74719 143.979 5.74719C145.436 5.74719 146.838 6.3005 147.903 7.29524C148.411 7.76964 148.816 8.34351 149.093 8.98117C149.37 9.61884 149.513 10.3067 149.513 11.0019C149.513 11.6972 149.37 12.3851 149.093 13.0227C148.816 13.6604 148.411 14.2343 147.903 14.7087ZM142.006 13.0335C142.532 13.5537 143.241 13.8455 143.98 13.8455C144.719 13.8455 145.428 13.5537 145.953 13.0335C146.215 12.7656 146.421 12.4476 146.557 12.0986C146.693 11.7495 146.758 11.3766 146.748 11.0019C146.759 10.6278 146.695 10.2553 146.558 9.90682C146.422 9.55835 146.216 9.24122 145.953 8.97464C145.427 8.45606 144.718 8.16535 143.98 8.16535C143.241 8.16535 142.532 8.45606 142.006 8.97464C141.743 9.24071 141.536 9.55765 141.399 9.90617C141.261 10.2547 141.196 10.6275 141.208 11.0019C141.197 11.377 141.262 11.7503 141.399 12.0995C141.537 12.4486 141.743 12.7664 142.006 13.0335Z" fill="#00349A"/>
<path d="M160.473 6.0304V15.9736H158.143L153.872 10.4329V15.9736H151.167V6.0304H153.529L157.784 11.5711V6.0304H160.473Z" fill="#00349A"/>
<path d="M165.641 6.03033H170.329C170.805 6.01344 171.28 6.09152 171.725 6.26002C172.171 6.42852 172.579 6.68407 172.925 7.01177C173.258 7.32247 173.522 7.70039 173.699 8.12057C173.875 8.54075 173.96 8.99362 173.949 9.44926C173.952 9.8281 173.892 10.2048 173.771 10.5638C173.674 10.8644 173.529 11.1472 173.341 11.4014C173.196 11.5957 173.033 11.7761 172.854 11.9404C172.725 12.059 172.58 12.16 172.425 12.2411L172.238 12.3463L174.297 15.965H171.463L169.755 12.8381H168.345V15.9736H165.641V6.03033ZM170.954 8.73197C170.744 8.53981 170.467 8.43863 170.183 8.45064H168.345V10.4328H170.189C170.474 10.4443 170.751 10.3423 170.96 10.1494C171.054 10.0591 171.129 9.95031 171.179 9.82983C171.23 9.70935 171.254 9.57978 171.252 9.44926C171.257 9.31528 171.232 9.18188 171.181 9.05811C171.129 8.93434 171.052 8.82311 170.954 8.73197Z" fill="#00349A"/>
<path d="M183.624 13.6994V15.9736H175.817V6.0304H183.485V8.30467H178.514V9.86381H182.349V12.0114H178.514V13.7101L183.624 13.6994Z" fill="#00349A"/>
<path d="M189.15 12.4559C188.95 12.3069 188.725 12.1943 188.486 12.123C188.216 12.0349 187.915 11.9404 187.584 11.8417C187.246 11.7384 186.916 11.6106 186.597 11.4594C186.279 11.3122 185.979 11.1284 185.703 10.9118C185.418 10.6808 185.191 10.3867 185.04 10.0527C184.865 9.6605 184.779 9.23436 184.789 8.80499C184.789 7.99321 185.141 7.27735 185.845 6.65742C186.549 6.03749 187.452 5.73182 188.553 5.74041C188.987 5.7374 189.419 5.78716 189.841 5.88859C190.184 5.96623 190.516 6.08597 190.829 6.24509C191.06 6.36985 191.283 6.50751 191.499 6.65742C191.652 6.75546 191.788 6.87892 191.9 7.02251L192.033 7.15995L190.462 8.80499C190.397 8.72988 190.329 8.6582 190.258 8.59024C190.085 8.45146 189.896 8.33393 189.695 8.24018C189.43 8.09984 189.136 8.02612 188.836 8.02542C188.559 8.01522 188.289 8.10606 188.074 8.28099C187.981 8.35057 187.905 8.44057 187.852 8.54407C187.799 8.64757 187.771 8.76181 187.769 8.87801C187.771 8.97099 187.796 9.06207 187.841 9.14355C187.886 9.22504 187.949 9.29453 188.027 9.34618C188.227 9.4931 188.451 9.6056 188.688 9.67905C188.959 9.76925 189.257 9.86374 189.581 9.96253C189.918 10.0657 190.247 10.192 190.567 10.3405C190.888 10.4871 191.191 10.6709 191.469 10.8881C191.753 11.1193 191.979 11.4134 192.13 11.7472C192.31 12.1374 192.4 12.563 192.394 12.9928C192.399 13.4367 192.304 13.876 192.115 14.278C191.927 14.6799 191.65 15.0342 191.306 15.3143C190.583 15.9428 189.619 16.2571 188.415 16.2571C187.937 16.2589 187.461 16.1997 186.998 16.081C186.607 15.9875 186.229 15.8431 185.875 15.6514C185.605 15.5019 185.344 15.3363 185.093 15.1554C184.913 15.029 184.745 14.8851 184.593 14.7258L184.441 14.5519L186 12.9219C186.03 12.9617 186.064 12.9991 186.101 13.0336C186.15 13.0808 186.244 13.1646 186.386 13.2891C186.524 13.4136 186.674 13.5244 186.833 13.6198C187.019 13.7264 187.216 13.8114 187.421 13.8733C187.65 13.9452 187.889 13.9822 188.13 13.9828C188.466 13.9976 188.796 13.8866 189.055 13.6714C189.167 13.5811 189.257 13.4669 189.319 13.3372C189.38 13.2074 189.412 13.0655 189.412 12.9219C189.408 12.829 189.382 12.7383 189.337 12.6573C189.291 12.5762 189.227 12.5072 189.15 12.4559Z" fill="#00349A"/>
<path d="M198.374 6.0304C199.465 6.0304 200.353 6.35969 201.037 7.01828C201.372 7.33927 201.636 7.72709 201.812 8.1566C201.987 8.58611 202.071 9.04775 202.057 9.5116C202.07 9.97629 201.985 10.4385 201.807 10.8681C201.629 11.2977 201.363 11.685 201.026 12.0049C200.67 12.337 200.252 12.5953 199.796 12.7649C199.339 12.9345 198.854 13.0119 198.368 12.9928H196.594V15.9736H193.897V6.0304H198.374ZM196.601 8.4507V10.5789H198.228C198.377 10.5822 198.525 10.5556 198.663 10.5006C198.802 10.4456 198.927 10.3635 199.033 10.259C199.138 10.1651 199.222 10.0502 199.279 9.92182C199.336 9.79342 199.366 9.65437 199.366 9.51375C199.366 9.37313 199.336 9.23408 199.279 9.10568C199.222 8.97728 199.138 8.86241 199.033 8.76855C198.927 8.66472 198.801 8.58315 198.663 8.52857C198.525 8.474 198.377 8.44753 198.228 8.4507H196.601Z" fill="#00349A"/>
<path d="M209.497 13.2699C209.676 13.0812 209.816 12.8591 209.909 12.6163C210.003 12.3735 210.047 12.1146 210.04 11.8546V6.0304H212.737V11.8546C212.751 12.4383 212.644 13.0184 212.422 13.5585C212.2 14.0985 211.869 14.5867 211.449 14.9922C210.561 15.8056 209.401 16.2568 208.197 16.2568C206.993 16.2568 205.833 15.8056 204.945 14.9922C204.525 14.5867 204.193 14.0985 203.972 13.5585C203.75 13.0184 203.643 12.4383 203.656 11.8546V6.0304H206.351V11.8546C206.344 12.1146 206.389 12.3735 206.482 12.6163C206.575 12.8591 206.715 13.0812 206.894 13.2699C207.059 13.4511 207.26 13.596 207.484 13.6951C207.708 13.7942 207.95 13.8454 208.195 13.8454C208.44 13.8454 208.682 13.7942 208.906 13.6951C209.129 13.596 209.33 13.4511 209.495 13.2699H209.497Z" fill="#00349A"/>
<path d="M214.893 15.9736V6.0304H219.363C220.385 6.0304 221.209 6.29168 221.833 6.81426C222.119 7.02968 222.353 7.308 222.515 7.62781C222.677 7.94762 222.764 8.3004 222.769 8.65902C222.77 8.92461 222.725 9.18835 222.636 9.43859C222.566 9.65336 222.458 9.85403 222.318 10.0313C222.204 10.1686 222.08 10.2971 221.946 10.4157C221.85 10.5069 221.742 10.5849 221.624 10.6477L221.493 10.7185L221.682 10.798C221.831 10.8696 221.974 10.9507 222.112 11.0407C222.309 11.1607 222.491 11.305 222.653 11.4702C222.833 11.6649 222.979 11.8894 223.082 12.1338C223.211 12.4245 223.276 12.7393 223.273 13.0572C223.273 13.8347 222.935 14.514 222.258 15.0953C221.581 15.6766 220.713 15.9679 219.655 15.9693L214.893 15.9736ZM217.59 8.16078V9.85951H219.08C219.326 9.87244 219.567 9.78926 219.752 9.62757C219.912 9.46219 220.001 9.2412 220.001 9.01122C220.001 8.78124 219.912 8.56025 219.752 8.39487C219.567 8.2316 219.326 8.14752 219.08 8.16078H217.59ZM219.434 13.8411C219.718 13.8514 219.995 13.7487 220.203 13.5555C220.297 13.4627 220.372 13.3521 220.423 13.23C220.475 13.108 220.501 12.977 220.501 12.8446C220.501 12.7123 220.475 12.5813 220.423 12.4592C220.372 12.3372 220.297 12.2265 220.203 12.1338C219.994 11.9414 219.718 11.8395 219.434 11.8503H217.59V13.8411H219.434Z" fill="#00349A"/>
<path d="M224.929 15.9736V6.0304H227.626V13.5598H232.028V15.9736H224.929Z" fill="#00349A"/>
<path d="M233.406 6.0304H236.103V15.9736H233.406V6.0304Z" fill="#00349A"/>
<path d="M241.019 13.4159V15.9736H238.322V6.0304H241.019V9.86381L244.282 6.0304H247.411L243.861 10.1494L247.694 15.9736H244.572L242.09 12.2089L241.019 13.4159Z" fill="#00349A"/>
<path d="M251.124 13.8454L250.417 15.9736H247.505L251.27 6.0304H254.252L258.016 15.9736H255.105L254.389 13.8454H251.124ZM252.76 8.80505L251.839 11.7193H253.683L252.76 8.80505Z" fill="#00349A"/>
<path d="M262.963 12.4559C262.765 12.3065 262.541 12.1938 262.302 12.123C262.032 12.035 261.731 11.9405 261.4 11.8417C261.064 11.74 260.735 11.6137 260.417 11.4637C260.098 11.3161 259.798 11.1324 259.521 10.9161C259.236 10.6858 259.01 10.3915 258.86 10.0571C258.682 9.665 258.594 9.23786 258.602 8.80719C258.602 7.99541 258.955 7.27955 259.661 6.65962C260.367 6.03969 261.269 5.73402 262.369 5.74261C262.803 5.7396 263.235 5.78936 263.657 5.89079C264 5.96843 264.331 6.08817 264.645 6.24729C264.875 6.37183 265.099 6.50876 265.315 6.65747C265.468 6.75612 265.603 6.87949 265.716 7.02256L265.847 7.16L264.282 8.80504C264.235 8.75135 264.166 8.68048 264.067 8.59028C263.894 8.45202 263.705 8.33453 263.505 8.24023C263.24 8.09988 262.945 8.02617 262.646 8.02547C262.369 8.01527 262.098 8.10611 261.883 8.28103C261.79 8.35062 261.714 8.44062 261.662 8.54412C261.609 8.64761 261.58 8.76185 261.578 8.87806C261.581 8.97078 261.605 9.0616 261.65 9.14301C261.694 9.22443 261.757 9.29408 261.834 9.34623C262.035 9.49272 262.26 9.60517 262.498 9.6791C262.768 9.7693 263.064 9.86379 263.391 9.96258C263.728 10.0657 264.057 10.192 264.376 10.3406C264.696 10.4877 264.998 10.6714 265.276 10.8882C265.561 11.1194 265.788 11.4134 265.94 11.7472C266.116 12.1398 266.204 12.5667 266.195 12.9971C266.2 13.441 266.105 13.8803 265.916 14.2823C265.728 14.6843 265.451 15.0385 265.106 15.3186C264.381 15.9471 263.417 16.2614 262.216 16.2614C261.738 16.2632 261.262 16.204 260.799 16.0853C260.407 15.9918 260.029 15.8474 259.674 15.6558C259.405 15.5045 259.145 15.3381 258.894 15.1575C258.715 15.0312 258.548 14.8874 258.396 14.728L258.244 14.5541L259.803 12.9241C259.833 12.9644 259.866 13.0018 259.904 13.0357C259.953 13.083 260.047 13.1667 260.187 13.2913C260.326 13.4158 260.476 13.5266 260.636 13.622C260.822 13.7289 261.019 13.814 261.224 13.8754C261.453 13.9472 261.691 13.9842 261.931 13.985C262.267 14.0004 262.597 13.8894 262.856 13.6736C262.968 13.5834 263.058 13.4692 263.12 13.3395C263.183 13.2098 263.215 13.0679 263.215 12.9241C263.213 12.8317 263.189 12.7411 263.145 12.6598C263.102 12.5784 263.039 12.5085 262.963 12.4559Z" fill="#00349A"/>
<path d="M267.718 6.0304H270.414V15.9736H267.718V6.0304Z" fill="#00349A"/>
<path d="M74.2069 29.6364C74.0614 30.0919 73.8439 30.5211 73.5628 30.9078C73.3261 31.2183 73.0662 31.5105 72.7855 31.7819C72.5818 31.9838 72.3605 32.1671 72.1241 32.3295L71.8536 32.482C71.9184 32.5685 71.9902 32.6497 72.0683 32.7246C72.2814 32.8874 72.5191 33.0151 72.7726 33.1026C73.1824 33.2645 73.6204 33.3433 74.0609 33.3346H74.4131V35.4628H73.9149C73.3607 35.4684 72.8085 35.3962 72.2744 35.248C71.8316 35.1296 71.409 34.9457 71.0204 34.7026C70.723 34.5098 70.4408 34.2944 70.1766 34.0583C69.9864 33.8911 69.8124 33.7063 69.6569 33.5064L69.5195 33.2787H68.9505C68.2257 33.2942 67.5051 33.165 66.8308 32.8988C66.1565 32.6326 65.5419 32.2346 65.0231 31.7282C64.5144 31.2543 64.1087 30.6807 63.8313 30.0432C63.554 29.4057 63.4108 28.7178 63.4108 28.0225C63.4108 27.3273 63.554 26.6394 63.8313 26.0019C64.1087 25.3644 64.5144 24.7908 65.0231 24.3169C66.087 23.3207 67.4899 22.7665 68.9473 22.7665C70.4046 22.7665 71.8075 23.3207 72.8714 24.3169C73.5812 24.9817 74.0847 25.8368 74.3216 26.7802C74.5584 27.7235 74.5186 28.7151 74.2069 29.6364ZM66.9664 30.0423C67.4927 30.561 68.2019 30.8518 68.9408 30.8518C69.6797 30.8518 70.3889 30.561 70.9152 30.0423C71.4228 29.4879 71.7044 28.7635 71.7044 28.0118C71.7044 27.2601 71.4228 26.5357 70.9152 25.9813C70.3884 25.4636 69.6794 25.1735 68.9408 25.1735C68.2023 25.1735 67.4932 25.4636 66.9664 25.9813C66.4532 26.5329 66.168 27.2584 66.168 28.0118C66.168 28.7652 66.4532 29.4907 66.9664 30.0423Z" fill="#00349A"/>
<path d="M81.9092 30.2678C82.2698 29.8871 82.4652 29.3791 82.4524 28.8547V23.0305H85.1494V28.8547C85.1636 29.4384 85.0564 30.0187 84.8346 30.5588C84.6128 31.0989 84.2813 31.5871 83.861 31.9923C82.9738 32.8061 81.8138 33.2575 80.6101 33.2575C79.4063 33.2575 78.2463 32.8061 77.3591 31.9923C76.9388 31.5871 76.6073 31.0989 76.3855 30.5588C76.1637 30.0187 76.0566 29.4384 76.0708 28.8547V23.0305H78.7677V28.8547C78.7613 29.1146 78.8062 29.3731 78.8998 29.6156C78.9934 29.858 79.1338 30.0797 79.3131 30.2678C79.4778 30.4491 79.6785 30.5939 79.9024 30.6931C80.1263 30.7922 80.3684 30.8434 80.6133 30.8434C80.8581 30.8434 81.1003 30.7922 81.3242 30.6931C81.5481 30.5939 81.7488 30.4491 81.9135 30.2678H81.9092Z" fill="#00349A"/>
<path d="M87.303 23.0306H91.9904C92.4664 23.0142 92.9408 23.0924 93.3864 23.2604C93.832 23.4285 94.2399 23.6832 94.5865 24.0099C94.9187 24.32 95.1815 24.697 95.3577 25.116C95.5338 25.535 95.6193 25.9865 95.6086 26.4409C95.612 26.8189 95.5525 27.1949 95.4325 27.5533C95.3367 27.8551 95.1916 28.1388 95.003 28.393C94.8534 28.5899 94.6867 28.7731 94.5049 28.9407C94.3795 29.0608 94.2396 29.1647 94.0883 29.2499L93.9015 29.353L95.9607 32.9738H93.1263L91.4214 29.8512H89.9999V32.9803H87.303V23.0306ZM92.6131 25.7301C92.4041 25.5384 92.1278 25.4373 91.8444 25.4487H89.9999V27.4331H91.8444C91.9851 27.4389 92.1255 27.4166 92.2575 27.3676C92.3895 27.3185 92.5104 27.2437 92.6131 27.1475C92.7077 27.0552 92.7828 26.945 92.8341 26.8233C92.8854 26.7016 92.9118 26.5708 92.9118 26.4388C92.9118 26.3067 92.8854 26.1759 92.8341 26.0542C92.7828 25.9325 92.7077 25.8223 92.6131 25.7301Z" fill="#00349A"/>
<path d="M97.4854 23.0305H100.182V32.9738H97.4854V23.0305Z" fill="#00349A"/>
<path d="M102.401 32.9738V23.0305H105.097V30.5599H109.51V32.9738H102.401Z" fill="#00349A"/>
<path d="M110.871 23.0305H113.568V32.9738H110.871V23.0305Z" fill="#00349A"/>
<path d="M119.654 29.4496C119.454 29.3015 119.23 29.1888 118.992 29.1167C118.722 29.0287 118.421 28.9363 118.09 28.8375C117.753 28.7349 117.424 28.6086 117.105 28.4595C116.787 28.3114 116.488 28.1277 116.211 27.9119C115.927 27.6814 115.7 27.3871 115.55 27.0529C115.372 26.6616 115.284 26.2351 115.292 25.8051C115.292 24.9905 115.645 24.2746 116.351 23.6576C117.057 23.0405 117.959 22.7341 119.057 22.7384C119.491 22.7353 119.923 22.7858 120.345 22.8887C120.688 22.9658 121.02 23.0856 121.333 23.2452C121.566 23.3692 121.792 23.5069 122.009 23.6576C122.162 23.7562 122.297 23.8787 122.411 24.0205L122.542 24.1601L120.976 25.7966C120.909 25.7208 120.837 25.6491 120.762 25.5818C120.59 25.4426 120.401 25.3251 120.201 25.2317C119.936 25.092 119.642 25.0184 119.342 25.017C119.065 25.0072 118.794 25.0988 118.58 25.2747C118.487 25.3438 118.411 25.4334 118.357 25.5365C118.304 25.6396 118.275 25.7536 118.273 25.8696C118.275 25.9626 118.299 26.0537 118.344 26.1353C118.389 26.2168 118.453 26.2862 118.531 26.3377C118.731 26.4851 118.954 26.5976 119.192 26.6706C119.462 26.7608 119.761 26.8553 120.087 26.9562C120.423 27.0594 120.752 27.1857 121.071 27.3342C121.392 27.4808 121.694 27.6646 121.973 27.8818C122.258 28.1121 122.484 28.4065 122.634 28.7409C122.812 29.1323 122.9 29.5587 122.892 29.9886C122.896 30.4329 122.801 30.8725 122.613 31.2748C122.424 31.6771 122.147 32.0317 121.803 32.3123C121.077 32.9422 120.114 33.2565 118.913 33.2551C118.434 33.257 117.957 33.1978 117.493 33.079C117.102 32.9851 116.725 32.8407 116.37 32.6495C116.101 32.4987 115.841 32.3323 115.591 32.1512C115.411 32.0243 115.243 31.8805 115.091 31.7217L114.938 31.5499L116.499 29.9199C116.529 29.9603 116.563 29.9977 116.6 30.0316C116.647 30.0767 116.742 30.1626 116.884 30.2871C117.022 30.4098 117.172 30.5197 117.33 30.6157C117.516 30.724 117.714 30.8091 117.921 30.8691C118.149 30.9428 118.387 30.9805 118.627 30.9808C118.963 30.9948 119.293 30.8839 119.553 30.6694C119.664 30.5791 119.754 30.4649 119.816 30.3352C119.878 30.2054 119.909 30.0635 119.909 29.9199C119.907 29.8269 119.882 29.7358 119.838 29.654C119.793 29.5722 119.73 29.5022 119.654 29.4496Z" fill="#00349A"/>
<path d="M133.42 32.9738H130.725V29.1382H127.105V32.9738H124.408V23.0305H127.105V26.7243H130.725V23.0305H133.42V32.9738Z" fill="#00349A"/>
<path d="M137.592 23.0305H140.504L142.638 29.8512L144.768 23.037H147.68L144.13 32.9802H141.141L137.592 23.0305Z" fill="#00349A"/>
<path d="M150.256 30.8434L149.55 32.9738H146.638L150.402 23.0305H153.383L157.147 32.9738H154.235L153.529 30.8434H150.256ZM151.892 25.803L150.971 28.7151H152.814L151.892 25.803Z" fill="#00349A"/>
<path d="M167.394 30.2614C167.573 30.0731 167.713 29.8514 167.806 29.6089C167.899 29.3664 167.944 29.108 167.937 28.8483V23.024H170.634V28.8483C170.648 29.4319 170.54 30.0121 170.318 30.5521C170.097 31.0922 169.765 31.5804 169.345 31.9859C168.458 32.7993 167.297 33.2505 166.093 33.2505C164.889 33.2505 163.729 32.7993 162.841 31.9859C162.421 31.5803 162.09 31.0921 161.868 30.5521C161.647 30.012 161.539 29.4319 161.553 28.8483V23.024H164.25V28.8483C164.244 29.1081 164.288 29.3666 164.382 29.6091C164.476 29.8516 164.616 30.0732 164.795 30.2614C164.96 30.4426 165.161 30.5875 165.385 30.6866C165.609 30.7857 165.851 30.8369 166.096 30.8369C166.34 30.8369 166.583 30.7857 166.806 30.6866C167.03 30.5875 167.231 30.4426 167.396 30.2614H167.394Z" fill="#00349A"/>
<path d="M181.443 23.024L177.898 29.4216V32.9716H175.201V29.4216L171.652 23.024H174.572L176.562 26.8575L178.544 23.024H181.443Z" fill="#00349A"/>
<path d="M186.515 29.8383H181.335V27.7036H186.515V29.8383Z" fill="#00349A"/>
<path d="M193.07 23.024V29.5548C193.07 30.6544 192.734 31.5456 192.061 32.2285C191.719 32.5695 191.31 32.8363 190.86 33.0122C190.41 33.1881 189.929 33.2693 189.446 33.2508C189.096 33.2522 188.747 33.2066 188.409 33.1155C188.123 33.0433 187.847 32.9366 187.586 32.7976C187.388 32.6851 187.196 32.5618 187.011 32.4283C186.88 32.3362 186.759 32.2312 186.65 32.1147L186.541 31.9751L188.17 30.3387C188.292 30.5062 188.455 30.6399 188.643 30.7271C188.83 30.8142 189.037 30.852 189.244 30.8369C189.397 30.8402 189.548 30.81 189.687 30.7484C189.827 30.6868 189.951 30.5953 190.051 30.4804C190.273 30.2243 190.388 29.8931 190.374 29.5548V23.024H193.07Z" fill="#00349A"/>
<path d="M204.118 31.7003C203.054 32.6965 201.651 33.2508 200.194 33.2508C198.737 33.2508 197.334 32.6965 196.27 31.7003C195.761 31.2265 195.356 30.6529 195.078 30.0154C194.801 29.3778 194.658 28.69 194.658 27.9947C194.658 27.2994 194.801 26.6116 195.078 25.9741C195.356 25.3365 195.761 24.7629 196.27 24.2891C197.334 23.2929 198.737 22.7386 200.194 22.7386C201.651 22.7386 203.054 23.2929 204.118 24.2891C204.626 24.7633 205.032 25.337 205.309 25.9745C205.586 26.6119 205.729 27.2996 205.729 27.9947C205.729 28.6898 205.586 29.3775 205.309 30.015C205.032 30.6524 204.626 31.2261 204.118 31.7003ZM198.222 30.0274C198.748 30.546 199.457 30.8367 200.195 30.8367C200.934 30.8367 201.643 30.546 202.169 30.0274C202.679 29.4746 202.963 28.7496 202.963 27.9969C202.963 27.2441 202.679 26.5191 202.169 25.9663C201.642 25.4488 200.933 25.1588 200.195 25.1588C199.457 25.1588 198.748 25.4488 198.222 25.9663C197.709 26.5179 197.423 27.2434 197.423 27.9969C197.423 28.7503 197.709 29.4758 198.222 30.0274Z" fill="#00349A"/>
<path d="M215.481 23.024L211.934 29.4216V32.9716H209.235V29.4216L205.686 23.024H208.597L210.588 26.8575L212.578 23.024H215.481Z" fill="#00349A"/>
<path d="M222.211 30.4074V32.9673H219.514V23.024H222.211V26.8575L225.477 23.024H228.603L225.054 27.1431L228.897 32.9673H225.771L223.278 29.2069L222.211 30.4074Z" fill="#00349A"/>
<path d="M238.159 31.7003C237.095 32.6965 235.692 33.2508 234.234 33.2508C232.777 33.2508 231.374 32.6965 230.31 31.7003C229.802 31.2265 229.396 30.6529 229.119 30.0154C228.841 29.3778 228.698 28.69 228.698 27.9947C228.698 27.2994 228.841 26.6116 229.119 25.9741C229.396 25.3365 229.802 24.7629 230.31 24.2891C231.374 23.2929 232.777 22.7386 234.234 22.7386C235.692 22.7386 237.095 23.2929 238.159 24.2891C238.667 24.7629 239.073 25.3365 239.35 25.9741C239.628 26.6116 239.771 27.2994 239.771 27.9947C239.771 28.69 239.628 29.3778 239.35 30.0154C239.073 30.6529 238.667 31.2265 238.159 31.7003ZM232.262 30.0274C232.788 30.5461 233.498 30.8369 234.237 30.8369C234.975 30.8369 235.685 30.5461 236.211 30.0274C236.719 29.473 237 28.7486 237 27.9969C237 27.2451 236.719 26.5207 236.211 25.9663C235.684 25.4486 234.975 25.1586 234.237 25.1586C233.498 25.1586 232.789 25.4486 232.262 25.9663C231.75 26.5184 231.465 27.2437 231.465 27.9969C231.465 28.75 231.75 29.4753 232.262 30.0274Z" fill="#00349A"/>
<path d="M244.13 27.0722V32.9673H241.433V23.024H243.844L246.896 26.9348L249.953 23.024H252.365V32.9673H249.668V27.0722L246.896 30.5534L244.13 27.0722Z" fill="#00349A"/>
<path d="M257.286 27.0722V32.9673H254.589V23.024H257.003L260.052 26.9348L263.109 23.024H265.523V32.9673H262.824V27.0722L260.05 30.5534L257.286 27.0722Z" fill="#00349A"/>
<path d="M273.517 30.2614C273.696 30.0732 273.837 29.8516 273.93 29.6091C274.024 29.3666 274.069 29.1081 274.062 28.8483V23.024H276.759V28.8483C276.773 29.4319 276.666 30.012 276.444 30.5521C276.222 31.0921 275.891 31.5803 275.471 31.9859C274.583 32.7993 273.423 33.2505 272.219 33.2505C271.015 33.2505 269.855 32.7993 268.967 31.9859C268.547 31.5804 268.216 31.0922 267.994 30.5521C267.772 30.0121 267.665 29.4319 267.679 28.8483V23.024H270.376V28.8483C270.369 29.108 270.413 29.3664 270.507 29.6089C270.6 29.8514 270.74 30.0731 270.919 30.2614C271.084 30.4426 271.284 30.5875 271.508 30.6866C271.732 30.7857 271.974 30.8369 272.219 30.8369C272.464 30.8369 272.706 30.7857 272.93 30.6866C273.154 30.5875 273.355 30.4426 273.519 30.2614H273.517Z" fill="#00349A"/>
<path d="M288.211 23.024V32.9673H285.881L281.61 27.4266V32.9673H278.913V23.024H281.256L285.514 28.5626V23.024H288.211Z" fill="#00349A"/>
<path d="M292.922 30.8369L292.215 32.9673H289.304L293.068 23.024H296.048L299.815 32.9673H296.903L296.188 30.8369H292.922ZM294.558 25.7966L293.637 28.7087H295.481L294.558 25.7966Z" fill="#00349A"/>
<path d="M300.901 32.9673V23.024H303.598V30.5534H308V32.9673H300.901Z" fill="#00349A"/>
<path d="M66.3845 49.9803H63.4019L66.6679 44.794L63.6875 40.0371H66.6679L68.3728 42.9514L70.0799 40.0393H73.0603L70.0799 44.7961L73.3437 49.9825H70.3633L68.3728 46.6473L66.3845 49.9803Z" fill="#00349A"/>
<path d="M82.8304 48.7154C81.7658 49.7101 80.3632 50.2634 78.9063 50.2634C77.4493 50.2634 76.0468 49.7101 74.9822 48.7154C74.4734 48.2413 74.0677 47.6675 73.7902 47.0298C73.5128 46.3921 73.3697 45.7041 73.3697 45.0087C73.3697 44.3132 73.5128 43.6252 73.7902 42.9875C74.0677 42.3498 74.4734 41.776 74.9822 41.302C76.0468 40.3072 77.4493 39.7539 78.9063 39.7539C80.3632 39.7539 81.7658 40.3072 82.8304 41.302C83.3391 41.776 83.7449 42.3498 84.0223 42.9875C84.2997 43.6252 84.4429 44.3132 84.4429 45.0087C84.4429 45.7041 84.2997 46.3921 84.0223 47.0298C83.7449 47.6675 83.3391 48.2413 82.8304 48.7154ZM76.934 47.0317C77.4595 47.5519 78.169 47.8438 78.9084 47.8438C79.6478 47.8438 80.3573 47.5519 80.8828 47.0317C81.3921 46.4786 81.6748 45.7541 81.6748 45.0022C81.6748 44.2503 81.3921 43.5259 80.8828 42.9728C80.356 42.4551 79.647 42.165 78.9084 42.165C78.1699 42.165 77.4608 42.4551 76.934 42.9728C76.4219 43.5245 76.1374 44.2494 76.1374 45.0022C76.1374 45.755 76.4219 46.48 76.934 47.0317Z" fill="#00349A"/>
<path d="M92.8 40.0371V46.57C92.8 47.6696 92.4636 48.5601 91.7908 49.2416C91.4484 49.5831 91.0392 49.8501 90.5888 50.0261C90.1384 50.202 89.6565 50.2829 89.1733 50.2638C88.8233 50.2649 88.4746 50.2201 88.1362 50.1307C87.8509 50.0575 87.5754 49.9501 87.3159 49.8107C87.1168 49.7001 86.9246 49.5775 86.7405 49.4435C86.6084 49.3526 86.4873 49.2466 86.3797 49.1278L86.2681 48.9882L87.8978 47.3517C88.0198 47.5192 88.1823 47.6529 88.3701 47.7405C88.5579 47.828 88.7648 47.8664 88.9715 47.8521C89.1239 47.8551 89.2751 47.8248 89.4146 47.7632C89.5541 47.7016 89.6784 47.6103 89.7788 47.4956C89.9999 47.2393 90.1151 46.9083 90.1009 46.57V40.0371H92.8Z" fill="#00349A"/>
<path d="M97.1525 47.8521L96.4439 49.9804H93.5323L97.2985 40.0371H100.277L104.041 49.9804H101.136L100.421 47.8521H97.1525ZM98.7887 42.8118L97.8654 45.7239H99.7099L98.7887 42.8118Z" fill="#00349A"/>
<path d="M105.13 49.9804V40.0371H107.826V47.5686H112.228V49.9804H105.13Z" fill="#00349A"/>
<path d="M113.6 40.0371H116.297V49.9804H113.6V40.0371Z" fill="#00349A"/>
<path d="M119.566 48.7154C119.057 48.2413 118.651 47.6676 118.374 47.0298C118.096 46.3921 117.953 45.7041 117.953 45.0087C117.953 44.3132 118.096 43.6252 118.374 42.9875C118.651 42.3498 119.057 41.776 119.566 41.302C120.282 40.6302 121.159 40.1541 122.113 39.9194C123.067 39.6847 124.065 39.6993 125.011 39.9619C125.428 40.0733 125.829 40.2409 126.201 40.4601C126.486 40.6356 126.759 40.83 127.019 41.0421C127.204 41.1899 127.373 41.3577 127.521 41.5425L127.68 41.7422L126.044 43.4495C126.016 43.4109 125.979 43.3636 125.932 43.3056C125.833 43.1971 125.727 43.0952 125.614 43.0007C125.451 42.8586 125.278 42.7293 125.095 42.6141C124.872 42.4817 124.633 42.3784 124.384 42.307C124.095 42.2193 123.795 42.1745 123.493 42.1739C122.74 42.1739 122.018 42.473 121.486 43.0054C120.953 43.5379 120.654 44.26 120.654 45.013C120.654 45.7659 120.953 46.4881 121.486 47.0205C122.018 47.5529 122.74 47.8521 123.493 47.8521C123.812 47.8562 124.129 47.8031 124.429 47.6953C124.648 47.6283 124.851 47.5164 125.024 47.3667L125.191 47.2142V46.1404H123.63V44.4331H127.895V48.2687C127.839 48.3457 127.777 48.4176 127.708 48.4834C127.619 48.5736 127.437 48.7326 127.16 48.9602C126.882 49.1907 126.582 49.3942 126.265 49.568C125.875 49.7713 125.464 49.9305 125.039 50.0426C124.536 50.1854 124.016 50.2577 123.493 50.2573C122.769 50.274 122.048 50.1463 121.374 49.8815C120.7 49.6168 120.085 49.2204 119.566 48.7154Z" fill="#00349A"/>
<path d="M129.973 40.0371H132.67V49.9804H129.973V40.0371Z" fill="#00349A"/>
<path d="M136.834 40.0371H139.745L141.893 46.8535L144.021 40.0371H146.932L143.383 49.9804H140.383L136.834 40.0371Z" fill="#00349A"/>
<path d="M149.498 47.8521L148.792 49.9804H145.88L149.644 40.0371H152.625L156.391 49.9804H153.479L152.764 47.8521H149.498ZM151.135 42.8118L150.213 45.7239H152.058L151.135 42.8118Z" fill="#00349A"/>
<path d="M157.192 42.4574V40.0371H164.922V42.4574L160.518 47.5686H165.066V49.9804H156.977V47.5686L161.379 42.4574H157.192Z" fill="#00349A"/>
<path d="M166.801 40.0371H169.498V49.9804H166.801V40.0371Z" fill="#00349A"/>
<path d="M171.72 40.0372H176.408C176.884 40.0203 177.359 40.0984 177.804 40.2669C178.25 40.4354 178.658 40.6909 179.004 41.0186C179.336 41.3288 179.599 41.7057 179.775 42.1247C179.951 42.5437 180.037 42.9953 180.026 43.4497C180.029 43.8277 179.97 44.2036 179.85 44.5621C179.753 44.863 179.608 45.1459 179.42 45.3996C179.272 45.5981 179.105 45.7822 178.922 45.9494C178.797 46.0695 178.657 46.1728 178.506 46.2565L178.319 46.3618L180.378 49.9804H177.544L175.826 46.8535H174.404V49.9804H171.72V40.0372ZM177.033 42.7367C176.823 42.5445 176.546 42.4433 176.262 42.4553H174.417V44.4375H176.262C176.546 44.449 176.823 44.347 177.033 44.1541C177.129 44.063 177.205 43.9527 177.256 43.8302C177.307 43.7077 177.332 43.5759 177.329 43.4432C177.332 43.3112 177.308 43.1799 177.257 43.0581C177.206 42.9363 177.129 42.8267 177.033 42.7367Z" fill="#00349A"/>
<path d="M181.896 49.9804V40.0371H184.593V47.5686H188.997V49.9804H181.896Z" fill="#00349A"/>
<path d="M190.367 40.0371H193.064V49.9804H190.367V40.0371Z" fill="#00349A"/>
<path d="M196.332 48.7154C195.823 48.2413 195.418 47.6676 195.14 47.0298C194.863 46.3921 194.72 45.7041 194.72 45.0087C194.72 44.3132 194.863 43.6252 195.14 42.9875C195.418 42.3498 195.823 41.776 196.332 41.302C197.049 40.6302 197.926 40.1541 198.879 39.9194C199.833 39.6847 200.831 39.6993 201.777 39.9619C202.195 40.0733 202.595 40.2409 202.967 40.4601C203.252 40.6356 203.526 40.83 203.785 41.0421C203.971 41.1899 204.139 41.3577 204.288 41.5425L204.447 41.7422L202.81 43.4495C202.782 43.4109 202.746 43.3636 202.699 43.3056C202.6 43.1971 202.493 43.0952 202.381 43.0007C202.218 42.8586 202.044 42.7293 201.861 42.6141C201.638 42.4817 201.4 42.3784 201.15 42.307C200.862 42.2193 200.561 42.1745 200.259 42.1739C199.507 42.1739 198.784 42.473 198.252 43.0054C197.72 43.5379 197.421 44.26 197.421 45.013C197.421 45.7659 197.72 46.4881 198.252 47.0205C198.784 47.5529 199.507 47.8521 200.259 47.8521C200.578 47.8562 200.895 47.8031 201.196 47.6953C201.415 47.6283 201.617 47.5164 201.79 47.3667L201.958 47.2142V46.1404H200.399V44.4331H204.661V48.2687C204.605 48.3457 204.543 48.4176 204.474 48.4834C204.386 48.5736 204.203 48.7326 203.927 48.9602C203.648 49.1907 203.349 49.3942 203.031 49.568C202.642 49.7713 202.23 49.9305 201.805 50.0426C201.302 50.1854 200.782 50.2577 200.259 50.2573C199.535 50.274 198.815 50.1463 198.141 49.8815C197.466 49.6168 196.851 49.2204 196.332 48.7154Z" fill="#00349A"/>
<path d="M206.74 40.0371H209.437V49.9804H206.74V40.0371Z" fill="#00349A"/>
<path d="M86.2294 40.6621C86.1814 40.6411 86.1319 40.6238 86.0813 40.6105C86.2817 40.1121 86.6661 39.71 87.1549 39.4873L86.5794 38.6133C85.7974 38.9837 85.184 39.6356 84.8616 40.4387C84.3849 41.5383 84.5481 42.3586 85.3405 42.7023C85.9353 42.96 86.5386 42.7323 86.8242 42.0709C86.8834 41.94 86.9149 41.7983 86.9167 41.6547C86.9185 41.5111 86.8906 41.3687 86.8348 41.2364C86.7789 41.1041 86.6963 40.9848 86.5921 40.886C86.4879 40.7871 86.3645 40.7109 86.2294 40.6621Z" fill="#00349A"/>
<path d="M76.2619 6.64461C76.2135 6.62457 76.164 6.60736 76.1137 6.59307C76.3142 6.09525 76.6987 5.69378 77.1873 5.47203L76.6119 4.59583C75.8302 4.9678 75.217 5.62018 74.8941 6.42341C74.4174 7.52296 74.5806 8.34334 75.3729 8.68695C75.9677 8.94465 76.5689 8.71486 76.8567 8.04268C76.9137 7.91234 76.9436 7.77169 76.9443 7.6294C76.9451 7.4871 76.9167 7.34615 76.861 7.21521C76.8053 7.08427 76.7234 6.96611 76.6204 6.86799C76.5174 6.76986 76.3954 6.69384 76.2619 6.64461Z" fill="#00349A"/>
<path d="M27.9959 0L0 28L27.9959 56L55.9918 28L27.9959 0ZM5.93502 28L27.9959 5.93588L50.0568 28L27.9959 50.0641L5.93502 28Z" fill="#00349A"/>
<path d="M27.9957 8.80469L8.80359 27.9997L11.7711 30.9676L27.9957 14.7427L44.2204 30.9676L47.1879 27.9997L27.9957 8.80469Z" fill="#00349A"/>
<path d="M27.996 18.0579L13.4291 32.627L16.5447 35.7431L19.6175 32.6699V38.8163L23.8111 43.0105V28.4757L25.8509 26.4377V45.0485L27.996 47.1961L30.1433 45.0485V26.4377L32.181 28.4757V43.0105L36.3746 38.8163V32.6699L39.4474 35.7431L42.563 32.627L27.996 18.0579Z" fill="#00349A"/>
</g>
<defs>
<clipPath id="clip0_556_6251">
<rect width="308" height="56" fill="white"/>
</clipPath>
</defs>
</svg>
