<svg width="20" height="20" viewBox="0 0 20 20" fill="none" xmlns="http://www.w3.org/2000/svg">
<path d="M4.3239 10.6956C4.24788 10.1486 3.74279 9.76679 3.19577 9.84281C2.64874 9.91883 2.26691 10.4239 2.34293 10.9709L4.3239 10.6956ZM17.1732 12.8845C17.3856 12.3747 17.1445 11.7892 16.6346 11.5769C16.1248 11.3645 15.5394 11.6056 15.327 12.1154L17.1732 12.8845ZM15.6667 15.8333C15.6667 16.3856 16.1145 16.8333 16.6667 16.8333C17.219 16.8333 17.6667 16.3856 17.6667 15.8333L15.6667 15.8333ZM16.6667 12.5L17.6667 12.5C17.6667 11.9477 17.219 11.5 16.6667 11.5L16.6667 12.5ZM13.3334 11.5C12.7811 11.5 12.3334 11.9477 12.3334 12.5C12.3334 13.0522 12.7811 13.5 13.3334 13.5L13.3334 11.5ZM15.6763 9.30427C15.7523 9.8513 16.2574 10.2331 16.8044 10.1571C17.3514 10.0811 17.7333 9.576 17.6572 9.02898L15.6763 9.30427ZM2.82698 7.11539C2.6146 7.62521 2.85571 8.21067 3.36552 8.42305C3.87533 8.63544 4.46079 8.39433 4.67318 7.88452L2.82698 7.11539ZM4.33342 4.16662C4.33342 3.61434 3.8857 3.16662 3.33342 3.16662C2.78113 3.16662 2.33342 3.61434 2.33342 4.16662L4.33342 4.16662ZM3.33342 7.49996L2.33342 7.49996C2.33342 8.05224 2.78113 8.49996 3.33342 8.49996L3.33342 7.49996ZM6.66675 8.49996C7.21903 8.49996 7.66675 8.05224 7.66675 7.49996C7.66675 6.94767 7.21903 6.49996 6.66675 6.49996L6.66675 8.49996ZM2.34293 10.9709C2.57693 12.6547 3.35802 14.2148 4.5659 15.4109L5.9732 13.9898C5.07703 13.1024 4.4975 11.9449 4.3239 10.6956L2.34293 10.9709ZM4.5659 15.4109C5.77378 16.6071 7.34144 17.3729 9.02738 17.5904L9.28333 15.6069C8.03246 15.4455 6.86937 14.8773 5.9732 13.9898L4.5659 15.4109ZM9.02738 17.5904C10.7133 17.808 12.424 17.4652 13.896 16.6148L12.8955 14.883C11.8034 15.5139 10.5342 15.7683 9.28333 15.6069L9.02738 17.5904ZM13.896 16.6148C15.3679 15.7645 16.5195 14.4537 17.1732 12.8845L15.327 12.1154C14.842 13.2796 13.9876 14.2521 12.8955 14.883L13.896 16.6148ZM17.6667 15.8333L17.6667 12.5L15.6667 12.5L15.6667 15.8333L17.6667 15.8333ZM16.6667 11.5L13.3334 11.5L13.3334 13.5L16.6667 13.5L16.6667 11.5ZM17.6572 9.02898C17.4232 7.34523 16.6421 5.78513 15.4343 4.58899L14.027 6.01009C14.9231 6.89755 15.5027 8.05504 15.6763 9.30427L17.6572 9.02898ZM15.4343 4.58899C14.2264 3.39284 12.6587 2.62701 10.9728 2.40947L10.7168 4.39303C11.9677 4.55443 13.1308 5.12262 14.027 6.01009L15.4343 4.58899ZM10.9728 2.40947C9.28683 2.19193 7.57613 2.53474 6.10418 3.3851L7.10465 5.11688C8.19674 4.48597 9.46597 4.23163 10.7168 4.39303L10.9728 2.40947ZM6.10418 3.3851C4.63224 4.23546 3.48071 5.5462 2.82698 7.11539L4.67318 7.88452C5.1582 6.72027 6.01256 5.7478 7.10465 5.11688L6.10418 3.3851ZM2.33342 4.16662L2.33342 7.49996L4.33342 7.49996L4.33342 4.16662L2.33342 4.16662ZM3.33342 8.49996L6.66675 8.49996L6.66675 6.49996L3.33342 6.49996L3.33342 8.49996Z" fill="#389E0D"/>
</svg>
