<svg width="20" height="20" viewBox="0 0 20 20" fill="none" xmlns="http://www.w3.org/2000/svg">
<path d="M10.5124 1.66663C13.0066 1.66663 15.2953 2.90788 16.6667 4.90847V2.49996C16.6667 2.03972 17.0398 1.66663 17.5001 1.66663C17.9603 1.66663 18.3334 2.03972 18.3334 2.49996V6.66663C18.3334 7.12686 17.9603 7.49996 17.5001 7.49996H13.3334C12.8732 7.49996 12.5001 7.12686 12.5001 6.66663C12.5001 6.20639 12.8732 5.83329 13.3334 5.83329H15.2799C14.2134 4.28997 12.4421 3.33329 10.5124 3.33329H9.95372C6.30078 3.33329 3.33341 6.31705 3.33341 9.97671C3.33341 13.662 6.32154 16.6666 10.0001 16.6666H10.8334C14.0551 16.6666 16.6667 14.055 16.6667 10.8333C16.6667 10.3731 17.0398 9.99996 17.5001 9.99996C17.9603 9.99996 18.3334 10.3731 18.3334 10.8333C18.3334 14.9754 14.9756 18.3333 10.8334 18.3333H10.0001C5.39435 18.3333 1.66675 14.5757 1.66675 9.97671C1.66675 5.4033 5.3736 1.66663 9.95372 1.66663H10.5124Z" fill="#7F7F9B"/>
</svg>
