<svg width="142" height="20" viewBox="0 0 142 20" fill="none" xmlns="http://www.w3.org/2000/svg">
<path d="M31.1745 14.1959C31.8002 14.716 32.565 14.9586 33.5384 14.9586C34.4075 14.9586 35.068 14.7853 35.6242 14.404C36.1457 14.0226 36.4238 13.5026 36.4238 12.8439C36.4238 12.3585 36.2848 11.9772 35.9719 11.6998C35.6938 11.4225 35.3114 11.2145 34.8594 11.0758C34.4075 10.9371 33.7818 10.7984 32.9822 10.6598C31.7307 10.4517 30.7573 10.1051 29.9925 9.61971C29.2624 9.13435 28.88 8.33698 28.88 7.26225C28.88 6.56889 29.0539 5.94485 29.4015 5.39016C29.7491 4.83546 30.2706 4.41944 30.8963 4.1421C31.5221 3.86475 32.2869 3.69141 33.1212 3.69141C33.9903 3.69141 34.7899 3.86475 35.4504 4.17676C36.1109 4.48878 36.6672 4.93947 37.0496 5.52883C37.432 6.1182 37.6753 6.7769 37.7101 7.50493H36.1805C36.0762 6.7769 35.7633 6.18753 35.2071 5.77151C34.6509 5.32082 33.9556 5.11281 33.1212 5.11281C32.2869 5.11281 31.6264 5.28615 31.1397 5.66751C30.653 6.01419 30.4097 6.53422 30.4097 7.19292C30.4097 7.67828 30.5487 8.02496 30.8268 8.30231C31.1049 8.57965 31.4873 8.753 31.9393 8.89167C32.3912 9.03034 33.0169 9.16902 33.7818 9.30769C35.0333 9.5157 36.0414 9.86239 36.7715 10.3477C37.5363 10.8331 37.8839 11.6305 37.8839 12.7052C37.8839 13.3986 37.7101 14.0573 37.3277 14.612C36.9453 15.1667 36.4238 15.6173 35.7633 15.8947C35.1028 16.2067 34.338 16.3454 33.4689 16.3454C32.4955 16.3454 31.6612 16.172 30.9311 15.8254C30.2011 15.4787 29.6448 14.9933 29.2624 14.3346C28.88 13.7106 28.6367 12.9825 28.6019 12.1505H30.1315C30.2011 13.0172 30.5487 13.6759 31.1745 14.1959Z" fill="#1C1C1C"/>
<path d="M47.8267 11.1788V16.2404H46.3666V11.2828C46.3666 10.3468 46.1581 9.61873 45.7409 9.13337C45.3237 8.64801 44.698 8.40534 43.8984 8.40534C43.0641 8.40534 42.4035 8.71735 41.8821 9.30671C41.3954 9.89608 41.152 10.6935 41.152 11.7335V16.2751H39.692V3.79443H41.152V8.64801C41.4649 8.16266 41.8473 7.7813 42.334 7.50396C42.8207 7.19194 43.4465 7.05327 44.1417 7.05327C45.2542 7.05327 46.1233 7.39995 46.8186 8.05865C47.4791 8.71735 47.8267 9.7574 47.8267 11.1788Z" fill="#1C1C1C"/>
<path d="M58.1862 16.2413H57.3867C56.7957 16.2413 56.3785 16.1373 56.1352 15.8946C55.8918 15.652 55.7528 15.3053 55.7528 14.8546C55.0575 15.86 54.0493 16.38 52.6935 16.38C51.6854 16.38 50.8858 16.1373 50.2601 15.6866C49.6343 15.2359 49.3562 14.5772 49.3562 13.7452C49.3562 12.8438 49.6691 12.1505 50.2948 11.6651C50.9206 11.1797 51.8244 10.9371 53.0064 10.9371H55.6832V10.313C55.6832 9.72367 55.4747 9.27298 55.0923 8.92629C54.7098 8.57961 54.1536 8.44093 53.4236 8.44093C52.7978 8.44093 52.2764 8.57961 51.8592 8.85696C51.442 9.1343 51.1987 9.51566 51.0944 9.96635H49.6343C49.7386 9.06497 50.121 8.3716 50.8163 7.88624C51.5116 7.40088 52.3807 7.12354 53.4931 7.12354C54.6403 7.12354 55.5442 7.40088 56.2047 7.95558C56.8652 8.51027 57.1433 9.34231 57.1433 10.3824V14.2999C57.1433 14.7506 57.3519 14.9586 57.7343 14.9586H58.1862V16.2413ZM52.8674 12.1158C51.5116 12.1158 50.8511 12.6358 50.8511 13.6412C50.8511 14.0919 51.0249 14.4386 51.3725 14.7159C51.7201 14.9933 52.2068 15.1319 52.8326 15.1319C53.7365 15.1319 54.4317 14.8893 54.9184 14.4386C55.4399 13.9879 55.6832 13.3639 55.6832 12.5665V12.1158H52.8674Z" fill="#1C1C1C"/>
<path d="M59.9243 6.15189C59.9243 5.35451 60.0982 4.76515 60.4806 4.3838C60.863 4.00244 61.454 3.79443 62.2883 3.79443H63.957V5.11183H62.3578C62.0102 5.11183 61.7321 5.18117 61.593 5.35451C61.454 5.49319 61.3497 5.77053 61.3497 6.11722V7.15727H63.9222V8.47467H61.3497V16.2057H59.8896V8.50934H58.2557V7.19194H59.8896V6.15189H59.9243Z" fill="#1C1C1C"/>
<path d="M67.2952 3.79443H68.9638V5.11183H67.3647C67.017 5.11183 66.7389 5.18117 66.5999 5.35451C66.4608 5.49319 66.3565 5.77053 66.3565 6.11722V7.15727H68.9291V8.47467H66.3913V16.2057H64.9312V6.15189C64.9312 5.35451 65.105 4.76515 65.4874 4.3838C65.8698 4.00244 66.4608 3.79443 67.2952 3.79443Z" fill="#1C1C1C"/>
<path d="M69.7629 14.1266C69.3805 13.4332 69.2067 12.6358 69.2067 11.6998C69.2067 10.7984 69.3805 9.96635 69.7629 9.27298C70.1453 8.57961 70.6667 8.02492 71.362 7.64356C72.0573 7.26221 72.8221 7.0542 73.6912 7.0542C74.5603 7.0542 75.3599 7.26221 76.0204 7.64356C76.7157 8.02492 77.2371 8.57961 77.6195 9.27298C78.0019 9.96635 78.1758 10.7637 78.1758 11.6998C78.1758 12.6011 78.0019 13.4332 77.6195 14.1266C77.2371 14.8199 76.7157 15.3746 76.0204 15.756C75.3251 16.1373 74.5603 16.3453 73.6912 16.3453C72.8221 16.3453 72.0225 16.1373 71.362 15.756C70.6667 15.3746 70.1453 14.8199 69.7629 14.1266ZM76.3333 13.4332C76.5766 12.9132 76.7157 12.3585 76.7157 11.6998C76.7157 11.0757 76.5766 10.4864 76.3333 9.96635C76.0899 9.44632 75.7423 9.06497 75.2904 8.78762C74.8384 8.51027 74.317 8.3716 73.726 8.3716C73.135 8.3716 72.6135 8.51027 72.1616 8.78762C71.7097 9.06497 71.362 9.48099 71.1187 9.96635C70.8753 10.4517 70.7363 11.0411 70.7363 11.6998C70.7363 12.3238 70.8753 12.9132 71.1187 13.4332C71.362 13.9532 71.7097 14.3346 72.1616 14.6119C72.6135 14.8893 73.135 15.0279 73.726 15.0279C74.317 15.0279 74.8384 14.8893 75.2904 14.6119C75.7423 14.3346 76.0899 13.9532 76.3333 13.4332Z" fill="#1C1C1C"/>
<path d="M80.3653 6.15189C80.3653 5.35451 80.5391 4.76515 80.9215 4.3838C81.3039 4.00244 81.8949 3.79443 82.7292 3.79443H84.3979V5.11183H82.7987C82.4511 5.11183 82.173 5.18117 82.0339 5.35451C81.8949 5.49319 81.7906 5.77053 81.7906 6.11722V7.15727H84.3631V8.47467H81.7906V16.2057H80.3305V8.50934H78.6966V7.19194H80.3305V6.15189H80.3653Z" fill="#1C1C1C"/>
<path d="M97.8172 16.2414H96.67C96.2181 16.2414 95.8357 16.172 95.5575 16.0334C95.2794 15.8947 95.0013 15.6867 94.7927 15.3747L94.6537 15.2013C93.6455 15.964 92.4636 16.3454 91.1078 16.3454C89.9605 16.3454 88.9176 16.068 88.0138 15.5133C87.1099 14.9586 86.4146 14.2306 85.8932 13.2599C85.3717 12.2892 85.1284 11.2145 85.1284 10.0011C85.1284 8.78766 85.3717 7.71294 85.8932 6.74223C86.4146 5.77151 87.1099 5.04348 88.0138 4.48878C88.9176 3.93409 89.9605 3.65674 91.1078 3.65674C92.255 3.65674 93.2979 3.93409 94.2017 4.48878C95.1056 5.04348 95.8009 5.77151 96.3224 6.74223C96.8438 7.71294 97.0872 8.78766 97.0872 10.0011C97.0872 10.8331 96.9829 11.5958 96.7395 12.2892C96.4962 12.9825 96.1485 13.6412 95.7314 14.1959C95.9052 14.404 96.079 14.5773 96.2528 14.6813C96.4266 14.7853 96.6352 14.82 96.9133 14.82H97.8867V16.2414H97.8172ZM93.4022 13.5372C93.2284 13.3292 93.0545 13.1559 92.9155 13.0519C92.7764 12.9479 92.5678 12.9132 92.3245 12.9132H91.2816V11.4918H92.5678C92.985 11.4918 93.2979 11.5611 93.576 11.6998C93.8541 11.8385 94.0975 12.0465 94.306 12.3585L94.6884 12.8785C95.1751 12.0812 95.4533 11.1104 95.4533 10.0011C95.4533 9.06501 95.2794 8.1983 94.897 7.47026C94.5146 6.74223 94.0279 6.15286 93.3674 5.73684C92.7069 5.32082 91.9421 5.11281 91.1078 5.11281C90.2387 5.11281 89.5086 5.32082 88.8481 5.73684C88.1876 6.15286 87.6661 6.74223 87.3185 7.47026C86.9361 8.1983 86.7623 9.06501 86.7623 10.0011C86.7623 10.9371 86.9361 11.8038 87.3185 12.5319C87.7009 13.2599 88.1876 13.8493 88.8481 14.2653C89.5086 14.6813 90.2734 14.8893 91.1078 14.8893C92.1507 14.8893 93.0198 14.5773 93.7846 13.9533L93.4022 13.5372Z" fill="#1C1C1C"/>
<path d="M106.681 16.2404H105.43L105.221 15.027C104.526 15.8937 103.553 16.3444 102.301 16.3444C101.223 16.3444 100.354 15.9977 99.6938 15.339C99.0333 14.6803 98.7204 13.6402 98.7204 12.2188V7.19189H100.18V12.1495C100.18 13.0855 100.389 13.8136 100.806 14.2989C101.223 14.7843 101.814 15.027 102.544 15.027C103.379 15.027 104.039 14.7149 104.491 14.1256C104.943 13.5362 105.186 12.7388 105.186 11.6988V7.19189H106.647V16.2404H106.681Z" fill="#1C1C1C"/>
<path d="M113.287 8.61379H112.557C111.688 8.61379 111.062 8.89114 110.68 9.4805C110.298 10.0699 110.124 10.7632 110.124 11.6299V16.2408H108.664V7.19238H109.915L110.124 8.54445C110.402 8.12843 110.715 7.78175 111.132 7.53907C111.549 7.29639 112.14 7.15771 112.87 7.15771H113.287V8.61379Z" fill="#1C1C1C"/>
<path d="M116.276 4.62745C116.276 4.9048 116.172 5.11281 115.998 5.28615C115.824 5.4595 115.581 5.5635 115.338 5.5635C115.094 5.5635 114.851 5.4595 114.677 5.28615C114.503 5.11281 114.399 4.87013 114.399 4.62745C114.399 4.38477 114.503 4.1421 114.677 3.96875C114.851 3.79541 115.094 3.69141 115.338 3.69141C115.581 3.69141 115.824 3.79541 115.998 3.96875C116.207 4.1421 116.276 4.35011 116.276 4.62745ZM116.068 7.19292V16.2414H114.608V7.19292H116.068Z" fill="#1C1C1C"/>
<path d="M119.544 3.79443V16.2404H118.084V3.79443H119.544Z" fill="#1C1C1C"/>
<path d="M123.194 4.62745C123.194 4.9048 123.09 5.11281 122.916 5.28615C122.742 5.4595 122.499 5.5635 122.255 5.5635C122.012 5.5635 121.769 5.4595 121.595 5.28615C121.421 5.11281 121.317 4.87013 121.317 4.62745C121.317 4.38477 121.421 4.1421 121.595 3.96875C121.769 3.79541 122.012 3.69141 122.255 3.69141C122.499 3.69141 122.742 3.79541 122.916 3.96875C123.124 4.1421 123.194 4.35011 123.194 4.62745ZM122.985 7.19292V16.2414H121.525V7.19292H122.985Z" fill="#1C1C1C"/>
<path d="M126.845 14.5772C127.297 14.9239 127.888 15.0973 128.618 15.0973C129.244 15.0973 129.765 14.9586 130.182 14.7159C130.565 14.4732 130.773 14.1266 130.773 13.7105C130.773 13.3639 130.669 13.0865 130.495 12.8785C130.321 12.7052 130.043 12.5665 129.765 12.4971C129.452 12.4278 129.035 12.3585 128.479 12.2891C127.679 12.1851 127.054 12.0811 126.567 11.9078C126.08 11.7344 125.663 11.4918 125.35 11.1797C125.037 10.8331 124.898 10.3824 124.898 9.79301C124.898 9.27298 125.037 8.78762 125.35 8.3716C125.663 7.95558 126.08 7.64356 126.602 7.40088C127.123 7.1582 127.714 7.0542 128.375 7.0542C129.452 7.0542 130.321 7.29688 130.982 7.8169C131.642 8.30226 132.025 9.0303 132.094 9.93168H130.634C130.565 9.44632 130.356 9.06497 129.939 8.75295C129.522 8.44094 129.035 8.30226 128.409 8.30226C127.784 8.30226 127.297 8.44094 126.915 8.68362C126.532 8.92629 126.358 9.27298 126.358 9.689C126.358 10.001 126.463 10.2437 126.636 10.3824C126.81 10.521 127.054 10.6597 127.332 10.7291C127.61 10.7984 128.027 10.8677 128.618 10.9371C129.418 11.0411 130.078 11.1451 130.6 11.3184C131.121 11.4918 131.538 11.7344 131.851 12.1158C132.164 12.4971 132.338 12.9825 132.338 13.6065C132.338 14.1612 132.164 14.6466 131.851 15.0626C131.538 15.4786 131.086 15.7906 130.565 16.0333C130.043 16.276 129.418 16.38 128.757 16.38C127.575 16.38 126.602 16.1027 125.906 15.548C125.176 14.9933 124.829 14.2306 124.794 13.2598H126.254C126.15 13.8145 126.393 14.2306 126.845 14.5772Z" fill="#1C1C1C"/>
<path d="M142.002 11.1788V16.2404H140.542V11.2828C140.542 10.3468 140.334 9.61873 139.917 9.13337C139.499 8.64801 138.874 8.40534 138.074 8.40534C137.24 8.40534 136.579 8.71735 136.058 9.30671C135.571 9.89608 135.328 10.6935 135.328 11.7335V16.2751H133.868V3.79443H135.328V8.64801C135.641 8.16266 136.023 7.7813 136.51 7.50396C136.996 7.19194 137.622 7.05327 138.318 7.05327C139.43 7.05327 140.299 7.39995 140.994 8.05865C141.69 8.71735 142.002 9.7574 142.002 11.1788Z" fill="#1C1C1C"/>
<path d="M3.42639 3.4473L3.42639 0.535156L0.506221 0.535156L0.506221 3.4473L3.42639 3.4473Z" fill="#007AFF"/>
<path d="M19.5175 3.45219V0.540039L16.5973 0.540039V3.45219L19.5175 3.45219Z" fill="#007AFF"/>
<path d="M11.9939 3.9522V0L8.03081 0V3.9522L11.9939 3.9522Z" fill="#007AFF"/>
<path d="M3.96301 11.9913L3.96301 8.03906H-7.7486e-05L-7.7486e-05 11.9913H3.96301Z" fill="#007AFF"/>
<path d="M20.0551 11.9947V8.04248H16.092V11.9947H20.0551Z" fill="#007AFF"/>
<path d="M12.0086 11.9751V8.02295H8.04552V11.9751H12.0086Z" fill="#007AFF"/>
<path d="M3.42249 19.4942L3.42249 16.582H0.502314L0.502314 19.4942H3.42249Z" fill="#007AFF"/>
<path d="M19.5145 19.4986V16.5864H16.5944V19.4986H19.5145Z" fill="#007AFF"/>
<path d="M11.99 20.0001V16.0479H8.0269V20.0001H11.99Z" fill="#007AFF"/>
<path d="M17.8231 10.0001L10.0708 2.30373L2.35317 10.0001L1.72742 9.37608L10.0708 1.05566L18.4489 9.37608L17.8231 10.0001Z" fill="#007AFF"/>
<path d="M17.7536 18.3546L10.0012 10.6582L2.28365 18.3546L1.6579 17.7306L10.0012 9.37549L18.3794 17.7306L17.7536 18.3546Z" fill="#007AFF"/>
</svg>
