<svg width="220" height="42" viewBox="0 0 220 42" fill="none" xmlns="http://www.w3.org/2000/svg">
<g clip-path="url(#clip0_556_6323)">
<path fill-rule="evenodd" clip-rule="evenodd" d="M1.73464 4.49634C2.69265 4.49634 3.46927 5.27296 3.46927 6.23097V28.2989L16.4047 35.9264V33.5831L5.66999 27.0796C4.85062 26.5831 4.58881 25.5165 5.08522 24.6971C5.58163 23.8778 6.64828 23.6159 7.46765 24.1124L19.874 31.6286V41.9997L0 30.2806V6.23097C0 5.27296 0.776623 4.49634 1.73464 4.49634Z" fill="#00349A"/>
<path fill-rule="evenodd" clip-rule="evenodd" d="M40.1206 4.49634C41.0787 4.49634 41.8553 5.27296 41.8553 6.23097V30.2806L21.9813 41.9997V31.6286L34.3876 24.1124C35.207 23.6159 36.2736 23.8778 36.77 24.6971C37.2665 25.5165 37.0046 26.5831 36.1853 27.0796L25.4506 33.5831V35.9264L38.386 28.2989V6.23097C38.386 5.27296 39.1626 4.49634 40.1206 4.49634Z" fill="#00349A"/>
<path fill-rule="evenodd" clip-rule="evenodd" d="M21.0311 -0.000976562L36.304 9.13633V20.9336C36.304 21.8917 35.5273 22.6683 34.5693 22.6683C33.6113 22.6683 32.8347 21.8917 32.8347 20.9336V11.1035L21.0204 4.03535L9.05182 11.1096V20.9336C9.05182 21.8917 8.2752 22.6683 7.31719 22.6683C6.35917 22.6683 5.58255 21.8917 5.58255 20.9336V9.13022L21.0311 -0.000976562Z" fill="#00349A"/>
<path fill-rule="evenodd" clip-rule="evenodd" d="M12.8145 6.06396C13.7725 6.06396 14.5491 6.84059 14.5491 7.7986V21.8068L20.9745 25.6444L27.0553 21.8315V7.7986C27.0553 6.84059 27.832 6.06396 28.79 6.06396C29.748 6.06396 30.5246 6.84059 30.5246 7.7986V23.7511L21.0185 29.7116L11.0798 23.7758V7.7986C11.0798 6.84059 11.8564 6.06396 12.8145 6.06396Z" fill="#00349A"/>
<path d="M71.6768 13.8941V31.29H67.4393V20.8574L63.5488 31.29H60.129L56.2137 20.8326V31.29H51.9762V13.8941H56.9819L61.8637 25.9374L66.6959 13.8941H71.6768Z" fill="#00349A"/>
<path d="M87.7585 24.1532C87.7585 24.5497 87.7338 24.9627 87.6842 25.3922H78.0941C78.1602 26.2513 78.4328 26.9121 78.9119 27.3747C79.4075 27.8207 80.0105 28.0437 80.7209 28.0437C81.7782 28.0437 82.5133 27.5977 82.9263 26.7056H87.4364C87.2051 27.6142 86.7838 28.432 86.1726 29.1589C85.5779 29.8858 84.8262 30.4557 83.9176 30.8687C83.0089 31.2817 81.9929 31.4882 80.8696 31.4882C79.5149 31.4882 78.3089 31.1991 77.2516 30.6209C76.1943 30.0427 75.3683 29.2167 74.7736 28.1429C74.1788 27.069 73.8815 25.8135 73.8815 24.3762C73.8815 22.939 74.1706 21.6834 74.7488 20.6096C75.3435 19.5358 76.1695 18.7097 77.2268 18.1315C78.2841 17.5533 79.4984 17.2642 80.8696 17.2642C82.2077 17.2642 83.3972 17.5451 84.438 18.1068C85.4787 18.6684 86.2882 19.4697 86.8665 20.5105C87.4612 21.5512 87.7585 22.7655 87.7585 24.1532ZM83.422 23.0381C83.422 22.3112 83.1741 21.733 82.6785 21.3034C82.1829 20.8739 81.5634 20.6591 80.82 20.6591C80.1096 20.6591 79.5066 20.8657 79.011 21.2787C78.5319 21.6917 78.2346 22.2781 78.1189 23.0381H83.422Z" fill="#00349A"/>
<path d="M98.4194 17.3138C100.038 17.3138 101.327 17.8424 102.285 18.8997C103.26 19.9405 103.747 21.3778 103.747 23.2115V31.29H99.5345V23.7815C99.5345 22.8564 99.295 22.1377 98.8159 21.6256C98.3368 21.1135 97.6925 20.8574 96.883 20.8574C96.0735 20.8574 95.4292 21.1135 94.9501 21.6256C94.471 22.1377 94.2315 22.8564 94.2315 23.7815V31.29H89.994V17.4625H94.2315V19.2962C94.661 18.685 95.2392 18.2059 95.9661 17.8589C96.693 17.4955 97.5108 17.3138 98.4194 17.3138Z" fill="#00349A"/>
<path d="M108.823 16.0252C108.08 16.0252 107.468 15.8104 106.989 15.3809C106.527 14.9348 106.295 14.3897 106.295 13.7454C106.295 13.0846 106.527 12.5394 106.989 12.1099C107.468 11.6638 108.08 11.4408 108.823 11.4408C109.55 11.4408 110.145 11.6638 110.607 12.1099C111.086 12.5394 111.326 13.0846 111.326 13.7454C111.326 14.3897 111.086 14.9348 110.607 15.3809C110.145 15.8104 109.55 16.0252 108.823 16.0252ZM110.929 17.4625V31.29H106.692V17.4625H110.929Z" fill="#00349A"/>
<path d="M122.426 17.3138C124.045 17.3138 125.333 17.8424 126.291 18.8997C127.266 19.9405 127.753 21.3778 127.753 23.2115V31.29H123.541V23.7815C123.541 22.8564 123.301 22.1377 122.822 21.6256C122.343 21.1135 121.699 20.8574 120.889 20.8574C120.08 20.8574 119.435 21.1135 118.956 21.6256C118.477 22.1377 118.238 22.8564 118.238 23.7815V31.29H114V17.4625H118.238V19.2962C118.667 18.685 119.245 18.2059 119.972 17.8589C120.699 17.4955 121.517 17.3138 122.426 17.3138Z" fill="#00349A"/>
<path d="M135.951 17.2642C136.926 17.2642 137.777 17.4625 138.504 17.8589C139.247 18.2554 139.817 18.7758 140.214 19.4201V17.4625H144.451V31.2652C144.451 32.5373 144.195 33.6854 143.683 34.7097C143.187 35.7505 142.419 36.5765 141.378 37.1878C140.354 37.799 139.074 38.1046 137.537 38.1046C135.489 38.1046 133.829 37.6173 132.556 36.6426C131.284 35.6844 130.558 34.3793 130.376 32.7273H134.564C134.696 33.2559 135.01 33.6689 135.505 33.9663C136.001 34.2802 136.612 34.4371 137.339 34.4371C138.215 34.4371 138.909 34.181 139.421 33.6689C139.949 33.1733 140.214 32.3721 140.214 31.2652V29.3075C139.801 29.9518 139.231 30.4805 138.504 30.8935C137.777 31.29 136.926 31.4882 135.951 31.4882C134.812 31.4882 133.779 31.1991 132.854 30.6209C131.929 30.0262 131.194 29.1919 130.648 28.1181C130.12 27.0277 129.855 25.7722 129.855 24.3514C129.855 22.9307 130.12 21.6834 130.648 20.6096C131.194 19.5358 131.929 18.7097 132.854 18.1315C133.779 17.5533 134.812 17.2642 135.951 17.2642ZM140.214 24.3762C140.214 23.3189 139.916 22.4846 139.322 21.8734C138.743 21.2621 138.033 20.9565 137.19 20.9565C136.348 20.9565 135.629 21.2621 135.035 21.8734C134.456 22.4681 134.167 23.2941 134.167 24.3514C134.167 25.4087 134.456 26.2513 135.035 26.8791C135.629 27.4903 136.348 27.7959 137.19 27.7959C138.033 27.7959 138.743 27.4903 139.322 26.8791C139.916 26.2678 140.214 25.4335 140.214 24.3762Z" fill="#00349A"/>
<path d="M166.422 17.4625V31.29H162.185V29.4067C161.755 30.0179 161.169 30.5135 160.425 30.8935C159.698 31.2569 158.889 31.4387 157.997 31.4387C156.939 31.4387 156.006 31.2074 155.197 30.7448C154.387 30.2657 153.759 29.5801 153.313 28.688C152.867 27.7959 152.644 26.7469 152.644 25.5409V17.4625H156.857V24.971C156.857 25.8961 157.096 26.6147 157.576 27.1269C158.055 27.639 158.699 27.8951 159.508 27.8951C160.334 27.8951 160.987 27.639 161.466 27.1269C161.945 26.6147 162.185 25.8961 162.185 24.971V17.4625H166.422Z" fill="#00349A"/>
<path d="M183.591 17.4625L174.918 37.8568H170.358L173.53 30.8192L167.905 17.4625H172.638L175.835 26.1109L179.006 17.4625H183.591Z" fill="#00349A"/>
<path d="M187.254 16.0252C186.511 16.0252 185.9 15.8104 185.421 15.3809C184.958 14.9348 184.727 14.3897 184.727 13.7454C184.727 13.0846 184.958 12.5394 185.421 12.1099C185.9 11.6638 186.511 11.4408 187.254 11.4408C187.981 11.4408 188.576 11.6638 189.038 12.1099C189.518 12.5394 189.757 13.0846 189.757 13.7454C189.757 14.3897 189.518 14.9348 189.038 15.3809C188.576 15.8104 187.981 16.0252 187.254 16.0252ZM189.361 17.4625V31.29H185.123V17.4625H189.361Z" fill="#00349A"/>
<path d="M210.075 17.3138C211.793 17.3138 213.156 17.8342 214.164 18.875C215.188 19.9157 215.7 21.3613 215.7 23.2115V31.29H211.488V23.7815C211.488 22.8894 211.248 22.2038 210.769 21.7247C210.306 21.2291 209.662 20.9813 208.836 20.9813C208.01 20.9813 207.358 21.2291 206.879 21.7247C206.416 22.2038 206.185 22.8894 206.185 23.7815V31.29H201.972V23.7815C201.972 22.8894 201.732 22.2038 201.253 21.7247C200.791 21.2291 200.146 20.9813 199.32 20.9813C198.494 20.9813 197.842 21.2291 197.363 21.7247C196.9 22.2038 196.669 22.8894 196.669 23.7815V31.29H192.431V17.4625H196.669V19.1971C197.098 18.6189 197.66 18.1646 198.354 17.8342C199.048 17.4872 199.833 17.3138 200.708 17.3138C201.749 17.3138 202.674 17.5368 203.484 17.9829C204.31 18.4289 204.954 19.0649 205.416 19.891C205.896 19.131 206.548 18.5115 207.374 18.0324C208.2 17.5533 209.1 17.3138 210.075 17.3138Z" fill="#00349A"/>
</g>
<defs>
<clipPath id="clip0_556_6323">
<rect width="219.141" height="42" fill="white"/>
</clipPath>
</defs>
</svg>
